<?xml version="1.0" encoding="UTF-8"?>
<svg version="1.1" xmlns="http://www.w3.org/2000/svg" width="1024" height="1024">
<path d="M0 0 C337.92 0 675.84 0 1024 0 C1024 337.92 1024 675.84 1024 1024 C686.08 1024 348.16 1024 0 1024 C0 686.08 0 348.16 0 0 Z " fill="#FEFAF3" transform="translate(0,0)"/>
<path d="M0 0 C19.33519637 15.81028122 33.95391977 36.43509027 38.7265625 61.3203125 C39.04282593 62.94622314 39.04282593 62.94622314 39.36547852 64.60498047 C41.17842201 74.60808512 41.61976548 84.25574996 40.9140625 94.3828125 C40.86862305 95.05989258 40.82318359 95.73697266 40.77636719 96.43457031 C39.67025313 110.72841848 35.45293104 124.19470598 27.9140625 136.3828125 C27.29845459 137.38320557 27.29845459 137.38320557 26.67041016 138.40380859 C23.78514367 143.0849957 20.86138866 147.74048256 17.9140625 152.3828125 C18.64288132 153.11130402 19.37170013 153.83979553 20.12260437 154.59036255 C22.60991501 157.07855695 25.09443407 159.56947575 27.57739258 162.06201172 C32.01730572 166.51794116 36.4594345 170.97165017 40.90318775 175.42374992 C43.58075513 178.10653135 46.25737889 180.79024045 48.93188477 183.47607422 C51.53547714 186.09061608 54.14158069 188.70263143 56.74936485 191.3129921 C57.73448403 192.29994036 58.71873194 193.28775917 59.7020359 194.27651596 C65.26574538 199.86986164 70.90881898 205.26646827 76.9140625 210.3828125 C83.3308375 216.16927627 87.44109392 220.41664238 88.2890625 229.3203125 C88.03648122 234.54369334 86.89068901 239.2247565 83.296875 243.1484375 C77.01138562 248.70556545 72.45141996 249.86709743 64.02734375 249.6796875 C56.70925168 248.98185187 52.51937959 243.14476704 47.671875 238.11328125 C45.53888322 236.00143812 43.39625971 234.04326116 41.125 232.08984375 C35.89800575 227.56457072 31.11092485 222.62879803 26.26953125 217.69921875 C22.28293364 213.66889246 18.20632102 209.85204603 13.90966797 206.15576172 C10.35537372 202.99803174 7.05510217 199.58755628 3.7265625 196.1953125 C-0.39072484 192.00055974 -4.43766903 187.99718302 -9.0859375 184.3828125 C-10.8984375 182.1328125 -10.8984375 182.1328125 -12.0859375 180.3828125 C-14.56687325 181.3400585 -16.97547436 182.32672241 -19.34765625 183.53125 C-43.95957035 195.97592154 -76.04190483 195.18182578 -101.8359375 187.1328125 C-112.93541952 183.16361871 -123.17065157 178.20485957 -132.0859375 170.3828125 C-133.00761719 169.60421875 -133.92929687 168.825625 -134.87890625 168.0234375 C-156.15024884 149.65020227 -170.64619065 124.70390378 -173.0859375 96.3828125 C-174.49630489 66.95915955 -168.85846208 38.93275809 -148.82006836 16.36254883 C-146.62675159 13.98315985 -144.36178107 11.68347056 -142.0859375 9.3828125 C-141.50585938 8.74214844 -140.92578125 8.10148438 -140.328125 7.44140625 C-104.09445479 -31.79656325 -40.46557828 -31.49695407 0 0 Z " fill="#741D18" transform="translate(578.0859375,673.6171875)"/>
<path d="M0 0 C0.66 0.33 1.32 0.66 2 1 C-13.46932519 36.76425845 -31.10912446 69.81084497 -56 100 C-56.76376953 100.94939453 -56.76376953 100.94939453 -57.54296875 101.91796875 C-60.69392243 105.74473019 -64.11631097 109.00177446 -67.8984375 112.203125 C-69.26372311 113.37046957 -70.60442771 114.56742193 -71.9140625 115.796875 C-103.01972943 144.86085723 -142.67001413 158.5926839 -184.7578125 157.4140625 C-206.75935671 156.61820877 -227.21340644 149.47982647 -245.9375 138 C-257.36494444 131.05039429 -267.61705618 127.49709188 -281 128 C-282.53704423 107.13035497 -270.57205476 89.39425674 -257.484375 74.05078125 C-252.64514686 68.61036066 -247.67274261 63.56393428 -242 59 C-241.04480469 58.23042969 -240.08960938 57.46085938 -239.10546875 56.66796875 C-200.17041095 25.78285121 -157.17266179 20.484741 -108.625 20.9375 C-79.00081815 21.78604839 -79.00081815 21.78604839 -49.75 17.9375 C-48.81164307 17.72270996 -47.87328613 17.50791992 -46.90649414 17.28662109 C-31.51576863 13.60996901 -16.28125622 8.86196362 -2.4140625 1.15234375 C-1.21910156 0.58193359 -1.21910156 0.58193359 0 0 Z " fill="#5E1F19" transform="translate(851,472)"/>
<path d="M0 0 C1.6396875 0.8353125 1.6396875 0.8353125 3.3125 1.6875 C24.39807717 12.18398736 46.15302978 19.71109843 69.78125 20.5703125 C71.48581863 20.63388695 71.48581863 20.63388695 73.224823 20.69874573 C86.99787278 21.1646206 100.76834065 21.03874606 114.54638672 20.90405273 C168.75758011 20.41235001 215.21776624 31.22632991 255 70 C267.0655106 82.02620926 282.19036226 101.78276134 283.1953125 119.4296875 C283.16050781 121.13511719 283.16050781 121.13511719 283.125 122.875 C283.10695313 124.02742187 283.08890625 125.17984375 283.0703125 126.3671875 C283.03550781 127.67042969 283.03550781 127.67042969 283 129 C281.91203125 128.94199219 280.8240625 128.88398437 279.703125 128.82421875 C269.95552763 128.46018673 262.75285006 129.29058611 254 134 C252.4840625 134.79664063 252.4840625 134.79664063 250.9375 135.609375 C247.00560368 137.71024117 243.09330709 139.84639534 239.18896484 141.99804688 C231.31692865 146.29375869 223.46503851 149.75807481 214.875 152.375 C214.1008374 152.61355713 213.3266748 152.85211426 212.52905273 153.09790039 C200.43829525 156.57448004 188.21279404 157.36783888 175.6875 157.3125 C175.0089093 157.31001251 174.3303186 157.30752502 173.63116455 157.30496216 C149.3291155 157.16755154 127.22292928 150.87296743 106 139 C105.36368652 138.64679688 104.72737305 138.29359375 104.07177734 137.9296875 C90.05090848 130.06130184 77.99183808 120.42891149 66.39697266 109.33398438 C65.20568754 108.19641327 64.00070236 107.07321776 62.79296875 105.953125 C39.59780566 83.84449704 22.7656042 52.83792603 9.3125 24.125 C9.01391083 23.49070068 8.71532166 22.85640137 8.40768433 22.20288086 C5.00694715 14.93909241 1.99794922 7.77841274 0 0 Z " fill="#5E1E19" transform="translate(172,472)"/>
<path d="M0 0 C1.13824219 -0.01224609 2.27648437 -0.02449219 3.44921875 -0.03710938 C24.89121105 -0.07403588 42.17207627 8.24579489 57.375 23.1875 C58.00148438 23.80109375 58.62796875 24.4146875 59.2734375 25.046875 C74.36806929 41.02942631 78.97798227 61.65505399 78.45947266 82.96875 C77.73784638 101.9229108 68.1758446 118.79758999 55.375 132.1875 C54.54548828 133.12916016 54.54548828 133.12916016 53.69921875 134.08984375 C43.16032504 145.6224793 26.17713899 153.14893106 10.6484375 154.40869141 C-14.41128367 155.4088671 -33.30454164 149.61674645 -52.35546875 132.7734375 C-66.79374753 119.01229434 -75.47516989 100.00163273 -76.09985352 80.0480957 C-76.26374371 61.40439309 -71.50429756 42.23764279 -58.625 28.1875 C-57.84511719 27.31609375 -57.06523437 26.4446875 -56.26171875 25.546875 C-40.93720498 9.29153891 -22.41011198 0.01243624 0 0 Z " fill="#FEF9F3" transform="translate(510.625,681.8125)"/>
<path d="M0 0 C0.66 0 1.32 0 2 0 C2.14260254 0.94883057 2.28520508 1.89766113 2.43212891 2.87524414 C4.99448757 19.62148403 7.99654638 36.29391209 10.94085693 52.97613525 C11.51503586 56.2314303 12.08772668 59.48698627 12.66034794 62.74255562 C15.54983636 79.16982073 18.45058595 95.59497407 21.40011597 112.01158142 C29.51159347 157.2443987 29.51159347 157.2443987 19.58984375 172.11328125 C19.14769531 172.69464844 18.70554687 173.27601563 18.25 173.875 C15.59282196 177.56552506 15.27188801 179.55916251 15 184 C19.95695637 187.98453909 23.52717351 188.65139838 29.8125 188.5 C31.01398682 188.48078491 31.01398682 188.48078491 32.23974609 188.46118164 C38.21405386 188.25611526 43.01228694 187.48725996 48 184 C48.70382812 183.51402344 49.40765625 183.02804687 50.1328125 182.52734375 C55.5803752 178.27583264 58.46325573 173.36152535 61 167 C61.54914063 165.64455078 61.54914063 165.64455078 62.109375 164.26171875 C63.25362406 160.07115748 63.38259979 156.20181424 63.375 151.875 C63.37483887 151.00552734 63.37467773 150.13605469 63.37451172 149.24023438 C63.20932642 139.56559205 61.16650197 130.39106966 59 121 C54.60951906 101.55644154 55.08675305 80.3788 65.1484375 62.8671875 C67.49495065 59.23355744 70.01742306 56.1280685 73 53 C73.33 53.66 73.66 54.32 74 55 C73.29810547 56.77117187 73.29810547 56.77117187 72.58203125 58.578125 C70.80500627 63.06979613 70.58286381 66.96184772 70.6875 71.75 C70.68427734 72.471875 70.68105469 73.19375 70.67773438 73.9375 C70.78917704 85.52753729 73.70533637 95.83823458 77.75 106.625 C78.65240021 109.09064905 79.55344198 111.55679569 80.453125 114.0234375 C80.88947266 115.21291992 81.32582031 116.40240234 81.77539062 117.62792969 C83.41659077 122.14711957 84.98052645 126.68862317 86.5 131.25 C86.73041992 131.93271973 86.96083984 132.61543945 87.19824219 133.31884766 C92.29735596 148.69718853 93.86255843 165.85577384 87 181 C79.03283299 196.82243561 66.71213742 206.22671617 50 212 C44.12282919 213.73643683 38.51627033 214.05426369 32.41796875 213.86328125 C31.40597412 213.83766113 30.39397949 213.81204102 29.35131836 213.78564453 C27.32337302 213.72146804 25.29614295 213.62353942 23.27172852 213.48779297 C17.79097567 213.29551844 14.73215023 213.65570788 10.546875 217.3671875 C9.95229492 217.98577637 9.35771484 218.60436523 8.74511719 219.24169922 C6.1518554 221.85455196 3.24858259 223.3080299 0 225 C-1.4194169 223.92027262 -2.8354083 222.83604137 -4.25 221.75 C-5.03890625 221.14671875 -5.8278125 220.5434375 -6.640625 219.921875 C-9 218 -9 218 -10.79394531 215.89770508 C-13.61820245 213.46820632 -14.98021437 213.56645277 -18.65625 213.71484375 C-20.31527344 213.75448242 -20.31527344 213.75448242 -22.0078125 213.79492188 C-23.73644531 213.86549805 -23.73644531 213.86549805 -25.5 213.9375 C-42.9461111 214.60927554 -58.37517813 210.56340895 -71.5 198.625 C-81.4390297 189.13489199 -88.46696039 176.6236033 -89.16796875 162.65234375 C-89.17441406 161.42644531 -89.18085938 160.20054687 -89.1875 158.9375 C-89.20167969 157.72964844 -89.21585937 156.52179688 -89.23046875 155.27734375 C-88.91309321 145.3858061 -86.34997309 136.16627934 -83.125 126.875 C-82.78597656 125.86824219 -82.44695312 124.86148438 -82.09765625 123.82421875 C-80.20121523 118.25026853 -78.13278993 112.77962857 -75.91503906 107.32666016 C-74.54783207 103.85027737 -73.40939534 100.31931859 -72.3125 96.75 C-72.10044922 96.08226562 -71.88839844 95.41453125 -71.66992188 94.7265625 C-69.28493482 87.05247166 -68.81781322 80.03763855 -68.8125 72.0625 C-68.79413086 70.61713867 -68.79413086 70.61713867 -68.77539062 69.14257812 C-68.76420785 63.68911102 -69.18694497 59.15251606 -71 54 C-62.42116572 60.47345041 -57.61451686 70.88995667 -55.4453125 81.3515625 C-53.61396006 96.35580092 -54.99267748 110.52540682 -58 125.25 C-61.64305612 143.1385621 -64.71118774 160.02966435 -54.53125 176.35546875 C-49.72302034 182.63680799 -42.69073721 187.23898573 -34.77636719 188.29736328 C-23.82254001 189.14945088 -23.82254001 189.14945088 -14 185 C-13.34 185 -12.68 185 -12 185 C-13.66815071 178.94197901 -16.01345876 173.97981186 -19.5 168.75 C-26.75835101 155.44302316 -24.79362413 140.18901661 -22.23828125 125.80078125 C-21.97069 124.24716888 -21.97069 124.24716888 -21.69769287 122.66217041 C-21.13997437 119.43995255 -20.5714603 116.2198067 -20 113 C-19.82572479 112.01111786 -19.65144958 111.02223572 -19.47189331 110.00338745 C-18.25077581 103.08203356 -17.00288643 96.16566195 -15.75 89.25 C-15.3597268 87.08783387 -14.96959285 84.92564261 -14.57958984 82.76342773 C-12.64653318 72.05479214 -10.70048133 61.34857918 -8.7421875 50.64453125 C-8.3818258 48.67220237 -8.02147406 46.69987168 -7.66113281 44.72753906 C-6.99401533 41.07662653 -6.32374824 37.42631357 -5.65136719 33.77636719 C-3.59102915 22.54312405 -1.72985882 11.28880626 0 0 Z " fill="#EF9529" transform="translate(511,75)"/>
<path d="M0 0 C2.12083265 1.04327334 4.20953589 2.11608935 6.27734375 3.26171875 C18.99276943 10.07688817 32.96340053 14.41523116 47.0625 17.3125 C47.76697266 17.45961426 48.47144531 17.60672852 49.19726562 17.75830078 C67.61385253 21.23274513 86.32748469 21.3621885 105 21.5625 C169.77703217 22.35235853 232.80433542 29.46356053 282 76 C282.88300781 76.81855469 283.76601563 77.63710938 284.67578125 78.48046875 C296.0870797 89.40755368 304.61001411 102.10053717 312 116 C312.60585938 117.11890625 313.21171875 118.2378125 313.8359375 119.390625 C329.29721669 148.96285332 334.86400921 182.96249892 331 216 C330.34 216 329.68 216 329 216 C328.93530518 215.42781738 328.87061035 214.85563477 328.80395508 214.26611328 C326.55434151 194.9213676 322.5403567 177.54573807 314 160 C313.70254883 159.38060547 313.40509766 158.76121094 313.09863281 158.12304688 C293.24311788 117.29581508 257.84308639 86.76974904 215.12060547 72.00488281 C186.20711791 62.60443858 155.97151361 58.53324786 125.8269043 55.66851807 C82.09418062 51.48033453 36.09641506 45.03887644 5.6484375 10.13671875 C3.19888008 6.96158152 1.63195037 3.65556882 0 0 Z " fill="#6E1E18" transform="translate(153,402)"/>
<path d="M0 0 C0.33 0.99 0.66 1.98 1 3 C-11.92945271 26.06130454 -38.22452263 39.06742782 -62.67651367 46.10986328 C-69.88609926 48.07630448 -77.10474506 49.54042238 -84.49462891 50.63037109 C-87.31535605 51.04652593 -90.13188565 51.48725298 -92.94921875 51.92578125 C-105.75195907 53.87063372 -118.55236453 55.40875838 -131.43429565 56.69360352 C-186.19091836 62.16536326 -236.92591528 73.35428178 -278 112 C-279.051875 112.93779297 -279.051875 112.93779297 -280.125 113.89453125 C-308.31567626 140.16782695 -322.52967017 177.77507263 -328 215 C-328.33 215 -328.66 215 -329 215 C-330.48839437 208.6314537 -330.19894424 202.1915445 -330.1875 195.6875 C-330.18656342 195.00882874 -330.18562683 194.33015747 -330.18466187 193.63092041 C-330.05060468 148.96676415 -312.64343724 109.02422149 -281.35546875 77.3203125 C-251.60938884 49.40270227 -212.93063942 31.91749677 -172.8125 25.8125 C-171.29378296 25.5801062 -171.29378296 25.5801062 -169.74438477 25.34301758 C-146.70112411 22.0750125 -123.67343251 21.653693 -100.43408203 21.61914062 C-47.84765874 21.8566239 -47.84765874 21.8566239 -1.08203125 1.296875 C-0.54642578 0.65492188 -0.54642578 0.65492188 0 0 Z " fill="#6E1E18" transform="translate(869,402)"/>
<path d="M0 0 C20.38623923 9.06055077 33.34970457 38.29217373 41 58 C46.70165551 75.18881441 48.04511568 96.53442487 40.5234375 113.2890625 C34.02705267 126.19284058 25.25757497 135.55951171 11.625 140.9375 C2.40529139 143.55057249 -6.4592638 142.72696775 -15.08203125 138.671875 C-28.78685067 130.81958222 -37.30267642 119.11129045 -41.56860352 103.98364258 C-42.99103743 98.23250234 -43.35074268 92.7231798 -43.3125 86.8125 C-43.30404053 85.43058472 -43.30404053 85.43058472 -43.29541016 84.02075195 C-42.80147322 56.03506761 -27.71303505 29.88388701 -10 9 C-8.65719736 7.73573865 -7.28302173 6.50369709 -5.875 5.3125 C-3.84411909 3.5843353 -1.88645821 1.88645821 0 0 Z " fill="#A53313" transform="translate(511,332)"/>
<path d="M0 0 C1.79551334 6.15627946 -1.18854877 11.49390569 -4 17 C-10.35183178 28.08660359 -18.12949035 38.05700064 -26.671875 47.52050781 C-27.88304733 48.86971817 -29.06802797 50.2423242 -30.25 51.6171875 C-49.34528581 73.77070268 -79.96471576 91.8440726 -109.38623047 94.82128906 C-125.72663357 95.9385294 -143.16164651 96.5351351 -159 92 C-159.9907251 91.72591309 -159.9907251 91.72591309 -161.00146484 91.44628906 C-178.1038408 86.61205979 -194.62967247 78.85524402 -210 70 C-208.67289545 67.08825141 -207.20313507 64.91075556 -205.0234375 62.57421875 C-204.43949219 61.94620361 -203.85554687 61.31818848 -203.25390625 60.67114258 C-202.63386719 60.01654053 -202.01382813 59.36193848 -201.375 58.6875 C-200.41787109 57.67175903 -200.41787109 57.67175903 -199.44140625 56.63549805 C-195.16485744 52.13521431 -190.78246312 47.95819658 -186 44 C-184.92869617 43.05859305 -183.85993085 42.11429365 -182.79296875 41.16796875 C-175.85490359 35.05068871 -168.9804042 29.71648587 -161 25 C-161.02094727 25.64437012 -161.04189453 26.28874023 -161.06347656 26.95263672 C-161.14760998 29.92659332 -161.19896345 32.90029842 -161.25 35.875 C-161.28351562 36.88820313 -161.31703125 37.90140625 -161.3515625 38.9453125 C-161.4994802 50.48289316 -157.25038148 60.24283084 -149.41015625 68.71875 C-140.1245504 77.28335587 -128.58814906 80.57697015 -116.1796875 80.30859375 C-104.5437667 79.17930905 -94.63309922 74.23809409 -86.6875 65.6875 C-78.36991582 55.17859761 -75.66415929 43.17560783 -77 30 C-79.72603747 18.82958599 -85.94198221 10.91444509 -94 3 C-90.71505042 1.90501681 -88.34704854 1.89253609 -84.88989258 1.91821289 C-83.62619339 1.9247438 -82.3624942 1.93127472 -81.0605011 1.93800354 C-80.04463645 1.94661502 -80.04463645 1.94661502 -79.00824928 1.95540047 C-76.86329574 1.97291125 -74.71841832 1.9831344 -72.57341003 1.99131775 C-66.47261322 2.01561645 -60.37191482 2.05031904 -54.27124023 2.09594727 C-36.07000358 2.22743736 -18.12242307 2.00474248 0 0 Z " fill="#FDF8F1" transform="translate(798,514)"/>
<path d="M0 0 C1.95486328 0.1071936 1.95486328 0.1071936 3.94921875 0.21655273 C22.15583486 1.1334053 40.33758006 1.11976945 58.56085205 1.06866455 C62.68509391 1.0582412 66.80934239 1.05382719 70.93359375 1.04882812 C78.95574668 1.03825852 86.97786841 1.02130359 95 1 C95 1.66 95 2.32 95 3 C93.4609375 4.19140625 93.4609375 4.19140625 91.375 5.5625 C84.34607303 10.68801843 79.42212687 18.3724303 78 27 C76.74006379 42.29922543 78.67981477 53.86487241 88.59375 65.94140625 C94.4232885 72.30715231 103.40183779 77.35517087 112.09594727 78.20483398 C126.73043858 78.81674537 138.18503377 77.39545894 150 68 C158.09881544 59.91475041 162.99326717 50.09421419 163.09765625 38.57421875 C163.09106137 36.9452837 163.07921288 35.31636266 163.0625 33.6875 C163.05573242 32.43356445 163.05573242 32.43356445 163.04882812 31.15429688 C163.03710548 29.10283351 163.01917203 27.05140727 163 25 C176.93291393 32.70648353 188.19925243 44.12084001 199.4375 55.25 C200.62859375 56.42151611 200.62859375 56.42151611 201.84375 57.61669922 C202.97103516 58.74229248 202.97103516 58.74229248 204.12109375 59.890625 C204.7958374 60.56125977 205.47058105 61.23189453 206.16577148 61.92285156 C208.12311889 64.1394244 209.55652138 66.42522199 211 69 C196.56432789 77.11332244 181.68160381 83.55360226 166 88.875 C164.74678955 89.30437866 164.74678955 89.30437866 163.46826172 89.74243164 C152.78361027 93.25853801 142.54531441 94.35144133 131.32226562 94.31567383 C129.26638082 94.31252509 127.21195714 94.33602485 125.15625 94.36132812 C112.71172295 94.42169014 100.86727729 92.36702406 89.0625 88.3125 C88.31581055 88.05831299 87.56912109 87.80412598 86.79980469 87.54223633 C49.78239022 74.47979635 20.7369308 45.60440422 3 11 C1.32354304 7.30726373 0 4.11508599 0 0 Z " fill="#FDF8F1" transform="translate(225,515)"/>
<path d="M0 0 C3.6099295 3.31880616 6.20199625 6.99269913 8.875 11.0625 C9.53254272 12.06059692 9.53254272 12.06059692 10.20336914 13.07885742 C20.9440078 29.55126968 25.24029868 43.47022865 22.56640625 63.19921875 C20.28058191 72.24313243 14.04970394 79.19136004 6.19140625 83.96484375 C2.1941444 85.85303339 -0.81533173 85.70361085 -4.96484375 84.3671875 C-12.55964818 81.13101363 -17.28915381 75.27591265 -20.375 67.75 C-24.33266155 56.94386325 -25.0583906 43.46923337 -20.390625 32.76953125 C-19.93171875 31.85558594 -19.4728125 30.94164062 -19 30 C-18.72091797 29.42685059 -18.44183594 28.85370117 -18.15429688 28.26318359 C-13.88542054 19.55549158 -8.95805505 11.67545451 -3 4 C-1.99819179 2.66802474 -0.99754281 1.33517269 0 0 Z " fill="#F09329" transform="translate(512,366)"/>
<path d="M0 0 C3 1 3 1 4.38671875 3.44921875 C9.15456385 15.318719 9.53171866 25.82562197 5.32421875 37.9609375 C0.0730934 50.01219272 -8.97666192 58.05148786 -21 63 C-30.09309932 66.42328445 -40.83347452 65.9939055 -50 63 C-51.34616408 62.35963722 -52.68352881 61.69937532 -54 61 C-53.67 60.01 -53.34 59.02 -53 58 C-48.25 58.75 -48.25 58.75 -46 61 C-33.28419868 62.91885631 -21.25839819 62.6208483 -10.3125 55.0625 C-7.42640993 52.6786017 -6.04449694 50.65573928 -5 47 C-4.34 46.67 -3.68 46.34 -3 46 C-2.34786708 43.97536745 -2.34786708 43.97536745 -2 42 C-1.34 42 -0.68 42 0 42 C0.710001 40.68922893 1.36039986 39.3465266 2 38 C2.515625 36.9275 3.03125 35.855 3.5625 34.75 C6.03078421 28.21777311 5.75718799 20.89921021 6 14 C5.34 14 4.68 14 4 14 C3.79503906 13.24074219 3.59007812 12.48148438 3.37890625 11.69921875 C3.10949219 10.70535156 2.84007812 9.71148438 2.5625 8.6875 C2.29566406 7.70136719 2.02882813 6.71523438 1.75390625 5.69921875 C1.21920575 3.78482474 0.62855462 1.88566385 0 0 Z " fill="#2E1110" transform="translate(714,530)"/>
<path d="M0 0 C2.52067204 3.78100807 2.96675109 7.409303 3.625 11.8125 C3.75616211 12.68890137 3.88732422 13.56530273 4.02246094 14.46826172 C5.85537861 27.93425561 5.55245743 41.52250328 4 55 C3.34 55 2.68 55 2 55 C1.93530518 54.42781738 1.87061035 53.85563477 1.80395508 53.26611328 C0.50419211 42.08926741 -1.07918151 31.30597766 -4.46166992 20.54931641 C-6.09309986 15.27929959 -6.09309986 15.27929959 -5 12 C-4.01 13.98 -3.02 15.96 -2 18 C0.61281488 12.12116651 0.18328202 6.29268272 0 0 Z " fill="#44130F" transform="translate(480,563)"/>
<path d="M0 0 C3.375 1.0625 3.375 1.0625 5.3125 2.6875 C6.81199866 6.03932053 6.82877473 8.43230218 6.375 12.0625 C4.875 14.5 4.875 14.5 2.375 16.0625 C-1.14194594 16.6852188 -4.35943285 16.69528358 -7.625 15.0625 C-9.27247639 11.76754722 -9.34576838 8.5976973 -8.625 5.0625 C-5.9636004 1.11072483 -4.808262 0.08290107 0 0 Z " fill="#F9F1E9" transform="translate(346.625,542.9375)"/>
<path d="M0 0 C3.5 1.0625 3.5 1.0625 6 3.1875 C7.97798094 6.97863014 7.63111674 8.99047973 6.5 13.0625 C4.83008955 15.69920071 3.61827573 16.02393183 0.625 17 C-2.5 17.0625 -2.5 17.0625 -5.375 15.6875 C-8.05235335 12.38018116 -8.17495975 10.35593704 -7.9140625 6.1953125 C-7.5 4.0625 -7.5 4.0625 -5.9375 1.4375 C-3.5 0.0625 -3.5 0.0625 0 0 Z " fill="#FAF3EB" transform="translate(679.5,542.9375)"/>
<path d="M0 0 C3.39391033 3.39391033 3.21430817 6.77548776 3.3125 11.375 C3.17232266 23.74883624 -0.50691607 33.90227599 -9 43 C-12.45511476 46.01614526 -15.92617108 48.86765659 -20 51 C-20.99 50.67 -21.98 50.34 -23 50 C-22.3503125 49.59007812 -21.700625 49.18015625 -21.03125 48.7578125 C-20.1959375 48.21898437 -19.360625 47.68015625 -18.5 47.125 C-17.6646875 46.59132813 -16.829375 46.05765625 -15.96875 45.5078125 C-15.3190625 45.01023437 -14.669375 44.51265625 -14 44 C-14 43.34 -14 42.68 -14 42 C-12.515 41.505 -12.515 41.505 -11 41 C-10.67 40.01 -10.34 39.02 -10 38 C-8.515 37.505 -8.515 37.505 -7 37 C-6.9175 35.88625 -6.835 34.7725 -6.75 33.625 C-6 30 -6 30 -3.9375 28.5625 C-3.298125 28.376875 -2.65875 28.19125 -2 28 C-2.04125 27.13375 -2.0825 26.2675 -2.125 25.375 C-1.99542279 21.87641532 -1.23980344 19.25448403 0 16 C-0.66 16 -1.32 16 -2 16 C-1 14 -1 14 1 13 C0.505 6.565 0.505 6.565 0 0 Z " fill="#351614" transform="translate(386,539)"/>
<path d="M0 0 C0.33 0 0.66 0 1 0 C1 4.95 1 9.9 1 15 C1.33 14.34 1.66 13.68 2 13 C2.99 13.33 3.98 13.66 5 14 C4.23945318 23.43078051 2.61328437 32.68556572 1 42 C0.67 42 0.34 42 0 42 C-0.94538785 38.01097024 -1.12891858 34.29004447 -1.1328125 30.1953125 C-1.13474609 28.23658203 -1.13474609 28.23658203 -1.13671875 26.23828125 C-1.13462402 25.5623291 -1.1325293 24.88637695 -1.13037109 24.18994141 C-1.12503452 22.13827051 -1.13032114 20.08682026 -1.13671875 18.03515625 C-1.13542969 16.72675781 -1.13414062 15.41835938 -1.1328125 14.0703125 C-1.13168457 12.88195801 -1.13055664 11.69360352 -1.12939453 10.46923828 C-0.99694681 6.91813994 -0.56376997 3.50634689 0 0 Z " fill="#411511" transform="translate(540,575)"/>
<path d="M0 0 C0.66 0 1.32 0 2 0 C2.95465783 2.16967689 3.14401212 3.56328793 2.3984375 5.82421875 C1.64129615 7.5684743 0.82390802 9.28627131 0 11 C-0.33 10.34 -0.66 9.68 -1 9 C-1.99 9 -2.98 9 -4 9 C-4.03738281 9.60328125 -4.07476563 10.2065625 -4.11328125 10.828125 C-4.77780891 18.90669655 -4.77780891 18.90669655 -8 22 C-8.66 22.33 -9.32 22.66 -10 23 C-10.37872934 24.65694085 -10.70250054 26.32656552 -11 28 C-11.64389782 30.00744615 -12.30562253 32.00945124 -13 34 C-13.66 34 -14.32 34 -15 34 C-15.33 35.32 -15.66 36.64 -16 38 C-17.20076926 34.5600773 -16.8263457 32.78949383 -15.41015625 29.47265625 C-15.04156494 28.60342529 -14.67297363 27.73419434 -14.29321289 26.83862305 C-13.88707764 25.92250244 -13.48094238 25.00638184 -13.0625 24.0625 C-12.65443115 23.12768799 -12.2463623 22.19287598 -11.82592773 21.22973633 C-8.52593903 13.83457325 -4.97787336 6.4342296 0 0 Z " fill="#561B1C" transform="translate(564,509)"/>
<path d="M0 0 C0.99 0.33 1.98 0.66 3 1 C4.1875 3.5625 4.1875 3.5625 5 6 C6.65 5.34 8.3 4.68 10 4 C8.96232949 10.06732052 7.66038099 15.4373852 5 21 C4.01 20.01 3.02 19.02 2 18 C1.67 18.99 1.34 19.98 1 21 C0.07811539 18.23434618 -0.11785222 16.61716298 -0.09765625 13.76953125 C-0.09282227 12.56586914 -0.09282227 12.56586914 -0.08789062 11.33789062 C-0.07951172 10.50451172 -0.07113281 9.67113281 -0.0625 8.8125 C-0.05798828 7.96751953 -0.05347656 7.12253906 -0.04882812 6.25195312 C-0.03705403 4.16793845 -0.0191189 2.08396023 0 0 Z " fill="#511C17" transform="translate(540,570)"/>
<path d="M0 0 C3.28178308 2.74328617 4.94885477 6.36386611 6.8125 10.125 C7.16070801 10.82423584 7.50891602 11.52347168 7.86767578 12.24389648 C13.07712358 22.98375897 19.58851639 36.9354141 19 49 C15.88757355 45.88757355 15.71302805 41.96325727 14.78125 37.75 C14.20809111 34.88345449 14.20809111 34.88345449 12 33 C11.4375 30.6875 11.4375 30.6875 11 28 C10.7215625 26.6078125 10.7215625 26.6078125 10.4375 25.1875 C10.293125 24.465625 10.14875 23.74375 10 23 C9.01 22.67 8.02 22.34 7 22 C7 20.02 7 18.04 7 16 C6.34 15.67 5.68 15.34 5 15 C3.54165769 13.54165769 3.48788317 12.00574193 3 10 C2.67 9.01 2.34 8.02 2 7 C1.22342065 4.67026194 0.55141123 2.38944867 0 0 Z " fill="#4B1916" transform="translate(461,513)"/>
<path d="M0 0 C3.3 0.99 6.6 1.98 10 3 C10 3.99 10 4.98 10 6 C20.64169395 9.95531988 29.89661545 10.35291609 40.52734375 6.16796875 C43.09427902 5.01674225 43.09427902 5.01674225 45.69140625 3.30078125 C46.45324219 2.87152344 47.21507812 2.44226563 48 2 C48.66 2.33 49.32 2.66 50 3 C40.10376394 10.22916535 31.44189438 13.53890409 19 12 C11.4317637 9.87398884 5.54266375 6.54266375 0 1 C0 0.67 0 0.34 0 0 Z " fill="#8C2715" transform="translate(486,462)"/>
<path d="M0 0 C0.66 0 1.32 0 2 0 C2.42485121 3.05919788 2.80964405 6.12217154 3.1875 9.1875 C3.30802734 10.05181641 3.42855469 10.91613281 3.55273438 11.80664062 C4.02513941 15.78398623 4.29184299 18.2943363 2.73828125 22.05078125 C1 24 1 24 -2 25 C-3.38213874 19.4165256 -2.54538853 14.67936583 -1.5625 9.125 C-1.41490234 8.24585937 -1.26730469 7.36671875 -1.11523438 6.4609375 C-0.75211779 4.30566487 -0.38017684 2.15231716 0 0 Z " fill="#E9912C" transform="translate(511,75)"/>
<path d="M0 0 C6.66666667 3.33333333 13.33333333 6.66666667 20 10 C17.1080406 10.96398647 15.0005625 11 12 11 C12 12.65 12 14.3 12 16 C6.33622109 11.95444364 3.20819323 7.14334874 0 1 C0 0.67 0 0.34 0 0 Z " fill="#521A1A" transform="translate(153,402)"/>
<path d="M0 0 C0.66 0.33 1.32 0.66 2 1 C2 3.64 2 6.28 2 9 C1.34 9 0.68 9 0 9 C0.99 10.485 0.99 10.485 2 12 C2.1875 15.125 2.1875 15.125 2 18 C1.67 18.33 1.34 18.66 1 19 C0.76924918 20.34747084 0.58846937 21.70377565 0.4375 23.0625 C0.293125 24.361875 0.14875 25.66125 0 27 C-2 25 -2 25 -2.22705078 22.75341797 C-2.21134033 21.38660889 -2.21134033 21.38660889 -2.1953125 19.9921875 C-2.18564453 18.51298828 -2.18564453 18.51298828 -2.17578125 17.00390625 C-2.15902344 15.97136719 -2.14226563 14.93882812 -2.125 13.875 C-2.11597656 12.83472656 -2.10695313 11.79445313 -2.09765625 10.72265625 C-2.07403747 8.14820908 -2.04110149 5.57421788 -2 3 C-3.65 3.66 -5.3 4.32 -7 5 C-4.63707344 2.47411298 -3.33537489 1.11179163 0 0 Z " fill="#391513" transform="translate(638,537)"/>
<path d="M0 0 C3.37668332 4.50224442 3.37668332 4.50224442 3.328125 8.8515625 C3.32296875 9.78613281 3.3178125 10.72070312 3.3125 11.68359375 C3.291875 12.65425781 3.27125 13.62492188 3.25 14.625 C3.24484375 15.57246094 3.2396875 16.51992188 3.234375 17.49609375 C3.16636352 23.71064282 2.72483789 29.82876388 2 36 C1.34 36 0.68 36 0 36 C-0.56322801 29.31166734 -1 22.71367661 -1 16 C-1.29185063 13.9935269 -1.61169599 11.99005807 -2 10 C-1.67 10 -1.34 10 -1 10 C-0.67 6.7 -0.34 3.4 0 0 Z " fill="#512321" transform="translate(482,582)"/>
<path d="M0 0 C5.22067761 3.76374433 8.61217712 7.95322465 11 14 C10.67 14.66 10.34 15.32 10 16 C9.67 15.01 9.34 14.02 9 13 C8.34 13 7.68 13 7 13 C6.87625 12.360625 6.7525 11.72125 6.625 11.0625 C6.41875 10.381875 6.2125 9.70125 6 9 C5.34 8.67 4.68 8.34 4 8 C4.33 8.99 4.66 9.98 5 11 C5.45993096 19.22527699 5.06006749 27.01723847 3 35 C2.67 35 2.34 35 2 35 C2.01047363 34.18845459 2.02094727 33.37690918 2.03173828 32.54077148 C2.0734865 28.83971289 2.09938613 25.13870399 2.125 21.4375 C2.14175781 20.16068359 2.15851563 18.88386719 2.17578125 17.56835938 C2.20811155 11.34477741 2.23461206 5.85046072 0 0 Z " fill="#D68B32" transform="translate(440,129)"/>
<path d="M0 0 C2.74786824 5.49573647 4.74346041 11.24630248 6.85058594 17.00927734 C7.62544339 19.12621135 8.40624833 21.24088744 9.1875 23.35546875 C9.68004859 24.69778423 10.17224829 26.04022778 10.6640625 27.3828125 C11.11217285 28.60371582 11.5602832 29.82461914 12.02197266 31.08251953 C13 34 13 34 13 36 C12.34 36 11.68 36 11 36 C10.34 33.69 9.68 31.38 9 29 C8.34 29 7.68 29 7 29 C6.87625 28.113125 6.7525 27.22625 6.625 26.3125 C6.04502226 23.23861797 5.22600031 20.8606674 4 18 C3.25476321 15.89250241 2.51192249 13.78447154 1.78125 11.671875 C1.11732382 9.79991447 1.11732382 9.79991447 -1 9 C-0.67 6.03 -0.34 3.06 0 0 Z " fill="#DD8F32" transform="translate(585,173)"/>
<path d="M0 0 C0.33 0.66 0.66 1.32 1 2 C0.52949219 3.0828125 0.05898438 4.165625 -0.42578125 5.28125 C-2.77943323 11.20757689 -2.32210787 17.21829947 -2.1875 23.5 C-2.16719727 25.30597656 -2.16719727 25.30597656 -2.14648438 27.1484375 C-2.11135352 30.09942973 -2.06215996 33.04947412 -2 36 C-2.33 36 -2.66 36 -3 36 C-4.81344335 27.92046224 -5.23658921 20.26747851 -5 12 C-5.99 12 -6.98 12 -8 12 C-6.49087042 7.01987239 -3.44338151 3.75740058 0 0 Z " fill="#D78B30" transform="translate(584,128)"/>
<path d="M0 0 C4.75 0.75 4.75 0.75 7 3 C9.6888177 3.25497409 12.30588894 3.41993027 15 3.5 C22.72972973 3.72972973 22.72972973 3.72972973 25 6 C23.25183649 7.74816351 20.8730822 7.17251842 18.5 7.1875 C11.46166256 7.12884719 5.25439174 6.32264561 -1 3 C-0.67 2.01 -0.34 1.02 0 0 Z " fill="#3A1E1A" transform="translate(661,588)"/>
<path d="M0 0 C0.33 0 0.66 0 1 0 C1.01981934 0.82201904 1.03963867 1.64403809 1.06005859 2.4909668 C1.15544603 6.22346126 1.26507089 9.9554067 1.375 13.6875 C1.42140625 15.62786133 1.42140625 15.62786133 1.46875 17.60742188 C1.50742187 18.85458984 1.54609375 20.10175781 1.5859375 21.38671875 C1.6173584 22.53358154 1.6487793 23.68044434 1.68115234 24.86206055 C1.99737481 27.97416421 2.57959924 30.22261487 4 33 C4.66 33.33 5.32 33.66 6 34 C6 35.98 6 37.96 6 40 C1.23144466 35.72333002 -0.68066557 29.94061925 -1.19238281 23.62597656 C-1.48752328 15.72873325 -1.55967261 7.77300254 0 0 Z " fill="#FDEEC9" transform="translate(450,210)"/>
<path d="M0 0 C1.62463842 -0.05395478 3.24978541 -0.09277195 4.875 -0.125 C6.23238281 -0.15980469 6.23238281 -0.15980469 7.6171875 -0.1953125 C10 0 10 0 12 2 C12.5625 4.25 12.5625 4.25 13 7 C13.3403125 8.5778125 13.3403125 8.5778125 13.6875 10.1875 C13.790625 11.115625 13.89375 12.04375 14 13 C13.34 13.66 12.68 14.32 12 15 C11.89042969 14.37351562 11.78085937 13.74703125 11.66796875 13.1015625 C11.50941406 12.28429687 11.35085938 11.46703125 11.1875 10.625 C11.03667969 9.81289063 10.88585937 9.00078125 10.73046875 8.1640625 C10.12455058 5.64179359 10.12455058 5.64179359 7 4 C3.45975858 3.92232871 3.45975858 3.92232871 0 5 C-1.91666667 7.25 -1.91666667 7.25 -3 10 C-3.391875 10.763125 -3.78375 11.52625 -4.1875 12.3125 C-4.5896875 13.1478125 -4.5896875 13.1478125 -5 14 C-5.35680552 10.1643407 -5.35794008 8.49649753 -3.0625 5.3125 C-2.381875 4.549375 -1.70125 3.78625 -1 3 C-0.67 2.01 -0.34 1.02 0 0 Z " fill="#2E110C" transform="translate(341,540)"/>
<path d="M0 0 C0.86625 0.2784375 0.86625 0.2784375 1.75 0.5625 C3.91732338 1.16544302 3.91732338 1.16544302 5.65625 0.5 C9.04662525 -0.22328005 12.32590567 0.15593459 15.75 0.4375 C16.44738281 0.48970703 17.14476562 0.54191406 17.86328125 0.59570312 C19.57596203 0.72474072 21.28805066 0.86159614 23 1 C19.22710406 3.51526396 15.77005777 3.68906744 11.375 4.125 C10.60542969 4.21136719 9.83585938 4.29773438 9.04296875 4.38671875 C3.67043376 4.95366968 -1.59863794 5.07546813 -7 5 C-7 4.67 -7 4.34 -7 4 C-5.35 4 -3.7 4 -2 4 C-1.34 2.68 -0.68 1.36 0 0 Z " fill="#611612" transform="translate(714,456)"/>
<path d="M0 0 C5.13623978 4.95912807 5.13623978 4.95912807 7 8 C6.67 8.99 6.34 9.98 6 11 C5.67 10.01 5.34 9.02 5 8 C3.53890937 8.25554054 2.08111904 8.53000372 0.625 8.8125 C-0.59316406 9.03873047 -0.59316406 9.03873047 -1.8359375 9.26953125 C-4.35820641 9.87544942 -4.35820641 9.87544942 -6 13 C-6.66 13 -7.32 13 -8 13 C-6.40956621 7.91061189 -3.2553049 4.12543357 0 0 Z " fill="#F6923B" transform="translate(512,366)"/>
<path d="M0 0 C0.99 0.495 0.99 0.495 2 1 C2.37890625 3.25 2.37890625 3.25 2.5625 6 C2.53480538 9.30759619 2.53480538 9.30759619 4 12 C4.07179964 13.51928038 4.08392007 15.04167482 4.0625 16.5625 C4.05347656 17.38878906 4.04445313 18.21507812 4.03515625 19.06640625 C4.02355469 19.70449219 4.01195312 20.34257812 4 21 C4.66 21 5.32 21 6 21 C6.06058594 22.04800781 6.12117187 23.09601563 6.18359375 24.17578125 C6.26801738 25.55470048 6.35266447 26.93360605 6.4375 28.3125 C6.47681641 29.00279297 6.51613281 29.69308594 6.55664062 30.40429688 C6.74927415 33.47161535 7.02322717 36.06968152 8 39 C8.06740865 40.56118428 8.08514456 42.1250252 8.0625 43.6875 C8.05347656 44.49574219 8.04445313 45.30398437 8.03515625 46.13671875 C8.02355469 46.75160156 8.01195312 47.36648437 8 48 C7.67 48 7.34 48 7 48 C5.99872149 41.80766504 5.00230928 35.61456117 4.00927734 29.42089844 C3.67088034 27.31394722 3.33136947 25.20717458 2.99072266 23.10058594 C2.50129991 20.0727286 2.01588557 17.04425178 1.53125 14.015625 C1.37813354 13.07382385 1.22501709 12.13202271 1.06726074 11.16168213 C0.92711548 10.28107117 0.78697021 9.40046021 0.64257812 8.49316406 C0.51822388 7.72039124 0.39386963 6.94761841 0.26574707 6.15142822 C0 4 0 4 0 0 Z " fill="#FCE9C1" transform="translate(529,168)"/>
<path d="M0 0 C0.33 0.66 0.66 1.32 1 2 C0.0337499 4.01652194 -0.96708324 6.01679982 -2 8 C-2 8.66 -2 9.32 -2 10 C-2.763125 10.020625 -3.52625 10.04125 -4.3125 10.0625 C-7.41389118 10.79660949 -7.41389118 10.79660949 -8.8125 14.5625 C-9.204375 15.696875 -9.59625 16.83125 -10 18 C-10.99 18 -11.98 18 -13 18 C-13.66 19.32 -14.32 20.64 -15 22 C-15.33 21.34 -15.66 20.68 -16 20 C-14.46558533 17.78631875 -12.92285714 15.57925501 -11.375 13.375 C-10.94832031 12.75753906 -10.52164063 12.14007813 -10.08203125 11.50390625 C-7.06345065 7.22382928 -3.79240854 3.61446562 0 0 Z " fill="#4E1A15" transform="translate(582,486)"/>
<path d="M0 0 C2.14553377 3.21830065 2.29583868 4.26786507 2.3125 8 C2.32925781 8.86625 2.34601562 9.7325 2.36328125 10.625 C1.93703947 13.4116129 1.16168863 14.26608617 -1 16 C-1.33 15.67 -1.66 15.34 -2 15 C-2.33 15.99 -2.66 16.98 -3 18 C-3.66 18 -4.32 18 -5 18 C-5.77001757 11.0698419 -3.0898056 6.10236607 0 0 Z " fill="#E88E2D" transform="translate(575,140)"/>
<path d="M0 0 C0.33 0 0.66 0 1 0 C1.5879018 8.62255977 0.26564502 15.96058596 -1.9765625 24.1953125 C-3.20496717 28.7619772 -4.15054685 33.35036171 -5 38 C-5.33 38 -5.66 38 -6 38 C-5.43509624 29.6992595 -4.40881998 21.57269886 -3 13.375 C-2.82210938 12.30121094 -2.64421875 11.22742188 -2.4609375 10.12109375 C-1.13389881 2.26779762 -1.13389881 2.26779762 0 0 Z " fill="#DB8B2F" transform="translate(499,146)"/>
<path d="M0 0 C0.433125 0.474375 0.86625 0.94875 1.3125 1.4375 C3.02309613 3.23686957 3.02309613 3.23686957 6 4 C9.79442338 10.654191 11.32195467 18.60134558 13 26 C10.1708363 24.58541815 9.75076689 22.78081413 8.3984375 19.94140625 C7.66367187 18.40323242 7.66367187 18.40323242 6.9140625 16.83398438 C6.40617187 15.75439453 5.89828125 14.67480469 5.375 13.5625 C4.6015625 11.94891602 4.6015625 11.94891602 3.8125 10.30273438 C0 2.26925223 0 2.26925223 0 0 Z " fill="#481915" transform="translate(461,548)"/>
<path d="M0 0 C1.45606519 4.52092968 0.27032841 7.51648796 -1 12 C-0.67 12 -0.34 12 0 12 C0 13.65 0 15.3 0 17 C-0.66 17 -1.32 17 -2 17 C-2.0825 17.928125 -2.165 18.85625 -2.25 19.8125 C-3.1208505 23.51361463 -3.95826392 23.97420377 -7 26 C-3.76595745 7.53191489 -3.76595745 7.53191489 0 0 Z " fill="#E29235" transform="translate(430,196)"/>
<path d="M0 0 C0.33 0 0.66 0 1 0 C0.4308773 7.57200693 -0.55917911 14.97202219 -1.9375 22.4375 C-2.10701172 23.40365234 -2.27652344 24.36980469 -2.45117188 25.36523438 C-2.62068359 26.29529297 -2.79019531 27.22535156 -2.96484375 28.18359375 C-3.1155835 29.01431396 -3.26632324 29.84503418 -3.42163086 30.70092773 C-4 33 -4 33 -6 37 C-5.67 31.72 -5.34 26.44 -5 21 C-4.67 21 -4.34 21 -4 21 C-3.93941406 20.21753906 -3.87882812 19.43507812 -3.81640625 18.62890625 C-3.73261719 17.61699219 -3.64882813 16.60507813 -3.5625 15.5625 C-3.48128906 14.55316406 -3.40007812 13.54382813 -3.31640625 12.50390625 C-3 10 -3 10 -2 9 C-1.79395915 7.67218122 -1.6337041 6.33704105 -1.5 5 C-1.11111111 1.11111111 -1.11111111 1.11111111 0 0 Z " fill="#FEEDC9" transform="translate(496,155)"/>
<path d="M0 0 C0.66 0.66 1.32 1.32 2 2 C2.99 1.34 3.98 0.68 5 0 C4.81824219 0.59683594 4.63648438 1.19367187 4.44921875 1.80859375 C2.73648063 7.71973608 1.43648714 13.63163941 0.375 19.6875 C0.25213623 20.38738037 0.12927246 21.08726074 0.00268555 21.80834961 C-0.80135701 26.52565789 -1.43469865 31.24826885 -2 36 C-2.33 36 -2.66 36 -3 36 C-3.37338173 27.67497022 -2.59763271 20.35696544 -0.66796875 12.2578125 C0.19511052 8.04840835 0.22130462 4.27855607 0 0 Z " fill="#520A08" transform="translate(436,728)"/>
<path d="M0 0 C0.99 1.32 1.98 2.64 3 4 C-0.82185842 8.10495904 -4.98339837 10.58459921 -10 13 C-10.66 12.34 -11.32 11.68 -12 11 C-8.04 7.37 -4.08 3.74 0 0 Z " fill="#5B221F" transform="translate(596,472)"/>
<path d="M0 0 C3.48260836 3.48260836 3.39237375 8.64442936 4.1875 13.375 C4.47270508 14.95667969 4.47270508 14.95667969 4.76367188 16.5703125 C4.93833984 17.58609375 5.11300781 18.601875 5.29296875 19.6484375 C5.4530542 20.57833496 5.61313965 21.50823242 5.77807617 22.46630859 C5.996012 24.95446929 5.76986068 26.64379113 5 29 C4.34 27.68 3.68 26.36 3 25 C2.34 25 1.68 25 1 25 C1.01740234 23.54980469 1.01740234 23.54980469 1.03515625 22.0703125 C1.08665962 14.63911168 0.97283515 7.38312393 0 0 Z " fill="#E08E34" transform="translate(515,98)"/>
<path d="M0 0 C0.66 0.33 1.32 0.66 2 1 C0.88288256 3.64942024 -0.24319023 6.29436488 -1.375 8.9375 C-1.69210937 9.69224609 -2.00921875 10.44699219 -2.3359375 11.22460938 C-4.7734375 16.88671875 -4.7734375 16.88671875 -7 18 C-6.52269162 16.5410574 -6.04308958 15.08286504 -5.5625 13.625 C-5.29566406 12.81289063 -5.02882813 12.00078125 -4.75390625 11.1640625 C-4 9 -4 9 -3 7 C-5.64 7.33 -8.28 7.66 -11 8 C-10 5 -10 5 -7.78515625 3.578125 C-6.88667969 3.13984375 -5.98820313 2.7015625 -5.0625 2.25 C-4.16660156 1.80140625 -3.27070312 1.3528125 -2.34765625 0.890625 C-1.18556641 0.44976562 -1.18556641 0.44976562 0 0 Z " fill="#541718" transform="translate(851,472)"/>
<path d="M0 0 C0.66 0.33 1.32 0.66 2 1 C1.34 2.32 0.68 3.64 0 5 C-0.99 5 -1.98 5 -3 5 C-2.67 6.65 -2.34 8.3 -2 10 C-4.65228812 11.07525194 -7.28368454 12.09456151 -10 13 C-11.20882096 15.00016466 -11.20882096 15.00016466 -12 17 C-11.66143729 11.58299671 -8.4377312 7.93940967 -5 4 C-2.125 1.5 -2.125 1.5 0 0 Z " fill="#341C17" transform="translate(318,518)"/>
<path d="M0 0 C1.02150398 0.03541649 1.02150398 0.03541649 2.06364441 0.07154846 C4.22365787 0.14769011 6.38326703 0.23192444 8.54296875 0.31640625 C10.01365256 0.36967664 11.48435568 0.42241664 12.95507812 0.47460938 C16.54711899 0.60323714 20.1388428 0.73912097 23.73046875 0.87890625 C23.73046875 1.20890625 23.73046875 1.53890625 23.73046875 1.87890625 C23.17174072 1.9039624 22.6130127 1.92901855 22.03735352 1.95483398 C19.45574447 2.0723373 16.87436639 2.19435005 14.29296875 2.31640625 C13.41447266 2.35572266 12.53597656 2.39503906 11.63085938 2.43554688 C6.62045367 2.67589844 1.69221427 3.06446712 -3.27539062 3.77148438 C-6.56831229 3.94886997 -9.1911949 2.99234706 -12.26953125 1.87890625 C-12.26953125 1.54890625 -12.26953125 1.21890625 -12.26953125 0.87890625 C-8.09070103 -0.15794636 -4.29319841 -0.15900735 0 0 Z " fill="#742924" transform="translate(500.26953125,652.12109375)"/>
<path d="M0 0 C2.53833449 1.26916725 2.89400901 2.41624809 4.125 4.9375 C4.47820313 5.64777344 4.83140625 6.35804688 5.1953125 7.08984375 C6 9 6 9 6 11 C6.99 11 7.98 11 9 11 C9.07347656 11.58523438 9.14695312 12.17046875 9.22265625 12.7734375 C10.27467719 15.7867638 11.87685048 16.76494419 14.4375 18.625 C16.7827506 20.34911681 18.94045673 21.94045673 21 24 C14.31707482 23.21377351 10.37815836 18.80410359 6 14 C0 5.10059172 0 5.10059172 0 0 Z " fill="#301310" transform="translate(638,565)"/>
<path d="M0 0 C1.32 0 2.64 0 4 0 C4.33 0.99 4.66 1.98 5 3 C7.00016466 4.20882096 7.00016466 4.20882096 9 5 C8.67 5.99 8.34 6.98 8 8 C8.48210937 8.40992188 8.96421875 8.81984375 9.4609375 9.2421875 C10.09257812 9.78101563 10.72421875 10.31984375 11.375 10.875 C12.00148438 11.40867187 12.62796875 11.94234375 13.2734375 12.4921875 C14.55836651 13.61432007 15.79371975 14.79371975 17 16 C12.20768813 15.55260284 10.12414621 13.63679703 6.8125 10.25 C5.95269531 9.38890625 5.09289062 8.5278125 4.20703125 7.640625 C2.09462718 5.11321765 1.00140087 3.11049655 0 0 Z " fill="#2C1310" transform="translate(307,572)"/>
<path d="M0 0 C0.66 0.99 1.32 1.98 2 3 C0.44424022 3.84584998 -1.1199612 4.67618399 -2.6875 5.5 C-3.99267578 6.19609375 -3.99267578 6.19609375 -5.32421875 6.90625 C-8.11788829 8.04818792 -10.01629113 8.21504208 -13 8 C-10.94876752 5.94876752 -9.72994937 5.35852882 -7.0625 4.375 C-6.37285156 4.11460937 -5.68320312 3.85421875 -4.97265625 3.5859375 C-3 3 -3 3 0 3 C0 2.01 0 1.02 0 0 Z M9 1 C8.40138258 3.35171131 7.73075648 5.6859378 7 8 C6.01 8.495 6.01 8.495 5 9 C5 6.69 5 4.38 5 2 C4.01 1.67 3.02 1.34 2 1 C4.6666419 -0.33332095 6.16680303 0.32897967 9 1 Z " fill="#712324" transform="translate(839,478)"/>
<path d="M0 0 C0.33 0 0.66 0 1 0 C1.02894547 3.45831586 1.04678 6.91660072 1.0625 10.375 C1.07087891 11.35984375 1.07925781 12.3446875 1.08789062 13.359375 C1.09111328 14.30039062 1.09433594 15.24140625 1.09765625 16.2109375 C1.10289307 17.08024902 1.10812988 17.94956055 1.11352539 18.84521484 C1 21 1 21 0 23 C-0.99 23 -1.98 23 -3 23 C-2.67 17.39 -2.34 11.78 -2 6 C-1.67 6 -1.34 6 -1 6 C-0.67 4.02 -0.34 2.04 0 0 Z " fill="#7F3431" transform="translate(591,748)"/>
<path d="M0 0 C1.11375 0.1546875 1.11375 0.1546875 2.25 0.3125 C1.59 1.055 0.93 1.7975 0.25 2.5625 C-2.14211447 5.28492945 -2.14211447 5.28492945 -1.75 9.3125 C-3.07 8.9825 -4.39 8.6525 -5.75 8.3125 C-6.03875 9.116875 -6.3275 9.92125 -6.625 10.75 C-7.75 13.3125 -7.75 13.3125 -9.75 14.3125 C-8.49618759 8.67034417 -6.58282149 0.7480479 0 0 Z " fill="#672520" transform="translate(781.75,550.6875)"/>
<path d="M0 0 C0.33 0 0.66 0 1 0 C1.68022483 3.47665446 2.34164011 6.95664448 3 10.4375 C3.19078125 11.41138672 3.3815625 12.38527344 3.578125 13.38867188 C4.69871573 19.37182594 5.201411 24.9136113 5 31 C4.67 31 4.34 31 4 31 C1.70387244 19.47835991 1.70387244 19.47835991 2 14 C1.34 14 0.68 14 0 14 C-1.10370043 10.6888987 -0.92673641 8.75251051 -0.5625 5.3125 C-0.46066406 4.31863281 -0.35882812 3.32476562 -0.25390625 2.30078125 C-0.17011719 1.54152344 -0.08632813 0.78226563 0 0 Z " fill="#DE8C35" transform="translate(521,128)"/>
<path d="M0 0 C1.98 0 3.96 0 6 0 C-0.29831323 5.5573352 -6.03339761 6.34550001 -14.125 6.3125 C-14.92292969 6.32861328 -15.72085938 6.34472656 -16.54296875 6.36132812 C-22.38432533 6.36620405 -22.38432533 6.36620405 -25.5546875 4.48046875 C-26.03164063 3.99191406 -26.50859375 3.50335938 -27 3 C-26.32710937 3.16242188 -25.65421875 3.32484375 -24.9609375 3.4921875 C-21.47141963 4.09065363 -18.16519325 4.13218092 -14.625 4.125 C-13.35914063 4.12757813 -12.09328125 4.13015625 -10.7890625 4.1328125 C-7.09035208 4.00316698 -3.64562057 3.59347312 0 3 C0 2.01 0 1.02 0 0 Z " fill="#FDEDCA" transform="translate(555,258)"/>
<path d="M0 0 C0.66 0.66 1.32 1.32 2 2 C0.93174812 3.82142946 -0.15515702 5.63192912 -1.25 7.4375 C-2.15492188 8.95150391 -2.15492188 8.95150391 -3.078125 10.49609375 C-5 13 -5 13 -7.234375 13.84765625 C-7.81703125 13.89792969 -8.3996875 13.94820312 -9 14 C-8.625 12.0625 -8.625 12.0625 -8 10 C-7.34 9.67 -6.68 9.34 -6 9 C-5.34786708 6.97536745 -5.34786708 6.97536745 -5 5 C-4.34 5 -3.68 5 -3 5 C-2.690625 4.360625 -2.38125 3.72125 -2.0625 3.0625 C-1 1 -1 1 0 0 Z " fill="#361C18" transform="translate(717,567)"/>
<path d="M0 0 C3.43595166 1.52708963 6.11912454 3.59927045 9 6 C8.67 6.66 8.34 7.32 8 8 C7.34 7.67 6.68 7.34 6 7 C5.87625 7.639375 5.7525 8.27875 5.625 8.9375 C5.41875 9.618125 5.2125 10.29875 5 11 C4.01 11.495 4.01 11.495 3 12 C3 10.35 3 8.7 3 7 C3.66 7 4.32 7 5 7 C5 6.01 5 5.02 5 4 C0.545 4.495 0.545 4.495 -4 5 C-2.68 3.35 -1.36 1.7 0 0 Z " fill="#98361A" transform="translate(511,332)"/>
<path d="M0 0 C0.33 0 0.66 0 1 0 C0.99476318 0.77601563 0.98952637 1.55203125 0.98413086 2.3515625 C0.96321736 5.90103328 0.95029432 9.45049104 0.9375 13 C0.92912109 14.22074219 0.92074219 15.44148437 0.91210938 16.69921875 C0.89535156 22.89960932 1.02727854 28.8726207 2 35 C1.67 34.34 1.34 33.68 1 33 C0.34 33 -0.32 33 -1 33 C-1.02473064 28.78247482 -1.04287453 24.56498814 -1.05493164 20.34741211 C-1.05995842 18.91283432 -1.06678079 17.47826164 -1.07543945 16.04370117 C-1.08757752 13.98094418 -1.09324486 11.91825496 -1.09765625 9.85546875 C-1.10289307 8.61434326 -1.10812988 7.37321777 -1.11352539 6.09448242 C-1 3 -1 3 0 0 Z " fill="#FDEEC8" transform="translate(568,157)"/>
<path d="M0 0 C0.66 0 1.32 0 2 0 C2.66 6.27 3.32 12.54 4 19 C1.8614515 16.8614515 1.57344937 15.86724686 1 13 C0.34 13.66 -0.32 14.32 -1 15 C-1.09038099 9.84828377 -0.84681133 5.08086796 0 0 Z " fill="#D68E3B" transform="translate(511,75)"/>
<path d="M0 0 C1.485 0.99 1.485 0.99 3 2 C3.29296875 5.0390625 3.29296875 5.0390625 3.1875 8.625 C3.16042969 9.81351563 3.13335937 11.00203125 3.10546875 12.2265625 C3.07066406 13.14179687 3.03585937 14.05703125 3 15 C2.34 15 1.68 15 1 15 C0.67 15.99 0.34 16.98 0 18 C0 12.06 0 6.12 0 0 Z " fill="#641917" transform="translate(405,752)"/>
<path d="M0 0 C2.3125 1.0625 2.3125 1.0625 4 2 C1.1080406 2.96398647 -0.9994375 3 -4 3 C-4 4.65 -4 6.3 -4 8 C-6.5 6.1875 -6.5 6.1875 -9 4 C-9 3.01 -9 2.02 -9 1 C-5.6329035 -1.12002372 -3.78454048 -1.13536214 0 0 Z " fill="#5F1310" transform="translate(169,410)"/>
<path d="M0 0 C0.33 1.32 0.66 2.64 1 4 C1.66 2.68 2.32 1.36 3 0 C4.29132785 3.87398355 3.41113572 6.81988786 2.5625 10.6875 C2.41490234 11.38939453 2.26730469 12.09128906 2.11523438 12.81445312 C1.7504068 14.54444194 1.37611311 16.27242963 1 18 C0.67 18 0.34 18 0 18 C-0.19430855 15.3753399 -0.38073238 12.75053235 -0.5625 10.125 C-0.61857422 9.37863281 -0.67464844 8.63226563 -0.73242188 7.86328125 C-1.11328125 2.2265625 -1.11328125 2.2265625 0 0 Z " fill="#DE8A2C" transform="translate(449,196)"/>
<path d="M0 0 C7.26295679 3.301344 13.85143908 9.97096055 19 16 C19.33 16.99 19.66 17.98 20 19 C16.67563779 17.89187926 16.07314668 17.14463373 13.9375 14.5 C10.28625923 10.16708981 6.21321705 6.49672957 1.94140625 2.78515625 C1.30074219 2.19605469 0.66007812 1.60695313 0 1 C0 0.67 0 0.34 0 0 Z " fill="#401110" transform="translate(413,531)"/>
<path d="M0 0 C1.32 0.66 2.64 1.32 4 2 C-0.18461538 7.78461538 -0.18461538 7.78461538 -4.3125 8.875 C-5.6428125 8.936875 -5.6428125 8.936875 -7 9 C-6.67 8.01 -6.34 7.02 -6 6 C-5.34 6.33 -4.68 6.66 -4 7 C-4.33 6.01 -4.66 5.02 -5 4 C-4.01 4 -3.02 4 -2 4 C-1.34 2.68 -0.68 1.36 0 0 Z " fill="#A13320" transform="translate(539,456)"/>
<path d="M0 0 C-0.66 0 -1.32 0 -2 0 C-2.433125 0.9590625 -2.433125 0.9590625 -2.875 1.9375 C-4 4 -4 4 -6 5 C-7.70363822 5.22622081 -9.41328701 5.40888473 -11.125 5.5625 C-12.03507812 5.64628906 -12.94515625 5.73007812 -13.8828125 5.81640625 C-14.93082031 5.90728516 -14.93082031 5.90728516 -16 6 C-16 5.34 -16 4.68 -16 4 C-14.08959948 3.1319092 -12.17139263 2.28098217 -10.25 1.4375 C-9.18265625 0.96183594 -8.1153125 0.48617187 -7.015625 -0.00390625 C-4.01630163 -0.9946154 -2.86578759 -1.16161779 0 0 Z " fill="#431912" transform="translate(418,595)"/>
<path d="M0 0 C-1.5625 2 -1.5625 2 -4 4 C-6.33154122 4.09143299 -8.6679198 4.07646165 -11 4 C-14.03506134 4.53161902 -17.01420806 5.24170363 -20 6 C-15.16829091 0.39960992 -7.02277546 -0.45800709 0 0 Z " fill="#371310" transform="translate(679,498)"/>
<path d="M0 0 C2.31 0.33 4.62 0.66 7 1 C7 1.66 7 2.32 7 3 C7.70511719 3.10183594 8.41023438 3.20367187 9.13671875 3.30859375 C12.41059645 4.09914812 14.88584467 5.40523734 17.8125 7.0625 C18.78832031 7.61035156 19.76414062 8.15820312 20.76953125 8.72265625 C21.50558594 9.14417969 22.24164063 9.56570313 23 10 C21 11 21 11 18.95288086 10.3190918 C18.13182861 9.94953369 17.31077637 9.57997559 16.46484375 9.19921875 C15.57345703 8.79896484 14.68207031 8.39871094 13.76367188 7.98632812 C12.83103516 7.55771484 11.89839844 7.12910156 10.9375 6.6875 C10.00099609 6.27048828 9.06449219 5.85347656 8.09960938 5.42382812 C1.12967286 2.25934573 1.12967286 2.25934573 0 0 Z " fill="#4E1312" transform="translate(375,475)"/>
<path d="M0 0 C1 3 1 3 0.5 5.9375 C0.03154544 8.8067842 0.06784834 10.30711744 1 13 C0.05125 12.814375 -0.8975 12.62875 -1.875 12.4375 C-4.89868793 11.71313368 -4.89868793 11.71313368 -7 13 C-5.35821735 8.22390502 -2.73453298 4.20617096 0 0 Z " fill="#FDF0CF" transform="translate(533,241)"/>
<path d="M0 0 C5.0896327 4.94825401 9.07069235 10.10603853 13 16 C13.66 16.66 14.32 17.32 15 18 C14.67 18.99 14.34 19.98 14 21 C11.65896815 17.88069958 9.3285107 14.7536553 7 11.625 C6.33226562 10.73554687 5.66453125 9.84609375 4.9765625 8.9296875 C4.34492188 8.07890625 3.71328125 7.228125 3.0625 6.3515625 C2.18271484 5.17327881 2.18271484 5.17327881 1.28515625 3.97119141 C0 2 0 2 0 0 Z " fill="#431512" transform="translate(444,524)"/>
<path d="M0 0 C1.32 0 2.64 0 4 0 C3.88590407 1.45922693 3.75834456 2.91740598 3.625 4.375 C3.55539062 5.18710937 3.48578125 5.99921875 3.4140625 6.8359375 C3 9 3 9 1 11 C-1.32275177 11.40047444 -3.65739357 11.7397104 -6 12 C-1.25 8 -1.25 8 1 8 C0.67 5.36 0.34 2.72 0 0 Z " fill="#E99137" transform="translate(498,252)"/>
<path d="M0 0 C0.33 0.99 0.66 1.98 1 3 C-0.21484375 5.04296875 -0.21484375 5.04296875 -1.9375 7.1875 C-2.50339844 7.90292969 -3.06929687 8.61835938 -3.65234375 9.35546875 C-4.09707031 9.89816406 -4.54179688 10.44085938 -5 11 C-6 9 -6 9 -6 7 C-7.65 7.66 -9.3 8.32 -11 9 C-11 8.34 -11 7.68 -11 7 C-10.37351562 6.66226562 -9.74703125 6.32453125 -9.1015625 5.9765625 C-8.28429687 5.53054688 -7.46703125 5.08453125 -6.625 4.625 C-5.40683594 3.96371094 -5.40683594 3.96371094 -4.1640625 3.2890625 C-1.89185698 2.0556107 -1.89185698 2.0556107 0 0 Z " fill="#521618" transform="translate(869,402)"/>
<path d="M0 0 C0 0.99 0 1.98 0 3 C-13.86 2.505 -13.86 2.505 -28 2 C-28 1.67 -28 1.34 -28 1 C-24.45843821 0.83105465 -20.91673593 0.66525124 -17.375 0.5 C-16.37597656 0.45230469 -15.37695312 0.40460937 -14.34765625 0.35546875 C-9.5608033 0.13356166 -4.79365172 -0.06544234 0 0 Z " fill="#FCE7E8" transform="translate(528,649)"/>
<path d="M0 0 C4.29 0 8.58 0 13 0 C13.33 0.66 13.66 1.32 14 2 C12.02 2.33 10.04 2.66 8 3 C8 3.33 8 3.66 8 4 C1.07 3.505 1.07 3.505 -6 3 C-6 2.67 -6 2.34 -6 2 C-4.02 2 -2.04 2 0 2 C0 1.34 0 0.68 0 0 Z " fill="#652521" transform="translate(766,513)"/>
<path d="M0 0 C1.52349518 5.07106254 -0.29431311 8.39616616 -2.375 13.125 C-3.96799894 15.94338274 -5.60147555 17.84959877 -8 20 C-8.66 19.67 -9.32 19.34 -10 19 C-9.52949219 18.29875 -9.05898438 17.5975 -8.57421875 16.875 C-4.95945954 11.36679549 -2.01373173 6.27810479 0 0 Z " fill="#FDEBC7" transform="translate(599,250)"/>
<path d="M0 0 C0.99 0.99 1.98 1.98 3 3 C3.66 2.67 4.32 2.34 5 2 C4.67 4.31 4.34 6.62 4 9 C3.01 9 2.02 9 1 9 C0.67 9.99 0.34 10.98 0 12 C-1.03159626 8.90521121 -0.97482862 7.47368607 -0.5625 4.3125 C-0.46066406 3.50425781 -0.35882812 2.69601562 -0.25390625 1.86328125 C-0.17011719 1.24839844 -0.08632813 0.63351562 0 0 Z " fill="#5B241B" transform="translate(541,579)"/>
<path d="M0 0 C0.598125 0.20625 1.19625 0.4125 1.8125 0.625 C1.8125 1.285 1.8125 1.945 1.8125 2.625 C7.7525 2.295 13.6925 1.965 19.8125 1.625 C17.14461421 4.29288579 15.11194656 3.88648845 11.48242188 3.8984375 C10.25362305 3.88683594 10.25362305 3.88683594 9 3.875 C8.19240234 3.88273437 7.38480469 3.89046875 6.55273438 3.8984375 C2.19435097 3.88415942 -1.22072177 3.65264323 -5.1875 1.625 C-2.1875 -0.375 -2.1875 -0.375 0 0 Z " fill="#FEECC9" transform="translate(474.1875,260.375)"/>
<path d="M0 0 C-1.32 0.33 -2.64 0.66 -4 1 C-4 2.32 -4 3.64 -4 5 C-6.76264289 5.59732819 -9.16032769 6 -12 6 C-13.33981486 6.3062434 -14.67511887 6.63451555 -16 7 C-13.62905707 4.34828752 -11.16431913 2.8509948 -8 1.25 C-7.13375 0.80140625 -6.2675 0.3528125 -5.375 -0.109375 C-3 -1 -3 -1 0 0 Z " fill="#45110F" transform="translate(436,586)"/>
<path d="M0 0 C0.33 0 0.66 0 1 0 C1.02578125 0.68707031 1.0515625 1.37414062 1.078125 2.08203125 C1.13484375 2.98308594 1.1915625 3.88414062 1.25 4.8125 C1.29640625 5.70582031 1.3428125 6.59914063 1.390625 7.51953125 C1.79419905 10.12538479 1.79419905 10.12538479 3.875 11.78125 C6.25385988 13.14559611 8.29653066 13.62451815 11 14 C11 14.33 11 14.66 11 15 C4.62149533 15.49065421 4.62149533 15.49065421 1.625 13.125 C-1.28031621 9.32574034 -1.1699099 6.75747715 -1 2 C-0.67 1.34 -0.34 0.68 0 0 Z " fill="#2D1311" transform="translate(671,546)"/>
<path d="M0 0 C4.9723422 1.49170266 9.41845739 3.60457417 14 6 C13.01 6.66 12.02 7.32 11 8 C10.34 7.67 9.68 7.34 9 7 C9 6.34 9 5.68 9 5 C8.13375 5.309375 8.13375 5.309375 7.25 5.625 C5 6 5 6 2.8125 5.3125 C1 4 1 4 0.25 1.875 C0.1675 1.25625 0.085 0.6375 0 0 Z " fill="#712522" transform="translate(175,476)"/>
<path d="M0 0 C1 3 1 3 0.00390625 5.48046875 C-0.47175781 6.37378906 -0.94742188 7.26710938 -1.4375 8.1875 C-1.91058594 9.08855469 -2.38367188 9.98960937 -2.87109375 10.91796875 C-3.24363281 11.60503906 -3.61617187 12.29210937 -4 13 C-4.99 12.67 -5.98 12.34 -7 12 C-7 10.68 -7 9.36 -7 8 C-5.68 8 -4.36 8 -3 8 C-3.061875 7.236875 -3.12375 6.47375 -3.1875 5.6875 C-3 3 -3 3 -1.5 1.1875 C-1.005 0.795625 -0.51 0.40375 0 0 Z " fill="#77211E" transform="translate(839,496)"/>
<path d="M0 0 C1.5625 1.1875 1.5625 1.1875 3 3 C2.57671287 6.86249505 1.21789589 9.88866175 -0.5625 13.3125 C-1.01753906 14.19550781 -1.47257813 15.07851563 -1.94140625 15.98828125 C-2.46541016 16.98408203 -2.46541016 16.98408203 -3 18 C-3.33 17.01 -3.66 16.02 -4 15 C-3.525625 14.113125 -3.05125 13.22625 -2.5625 12.3125 C-0.60178153 8.15577684 -0.84587367 5.54672687 -1 1 C-0.67 0.67 -0.34 0.34 0 0 Z " fill="#5B1311" transform="translate(841,488)"/>
<path d="M0 0 C0.515625 0.37125 1.03125 0.7425 1.5625 1.125 C0.5725 1.455 -0.4175 1.785 -1.4375 2.125 C-1.7675 3.115 -2.0975 4.105 -2.4375 5.125 C-4.4175 5.125 -6.3975 5.125 -8.4375 5.125 C-8.7675 3.805 -9.0975 2.485 -9.4375 1.125 C-3.0375 -1.09038462 -3.0375 -1.09038462 0 0 Z " fill="#6C1D1B" transform="translate(818.4375,486.875)"/>
<path d="M0 0 C1.98270912 0.95098266 3.96108379 1.91100703 5.9375 2.875 C7.03964844 3.40867187 8.14179688 3.94234375 9.27734375 4.4921875 C12 6 12 6 13 8 C9.51329166 6.8905928 6.22515763 5.73662334 3 4 C3.350625 4.598125 3.70125 5.19625 4.0625 5.8125 C5 8 5 8 4 11 C3.32880451 9.5437455 2.66318193 8.08492133 2 6.625 C1.62875 5.81289063 1.2575 5.00078125 0.875 4.1640625 C0 2 0 2 0 0 Z " fill="#460E0B" transform="translate(172,472)"/>
<path d="M0 0 C2.64 0.33 5.28 0.66 8 1 C6.71317455 3.57365089 5.55302057 3.72348972 3 5 C1.31110128 6.3050581 -0.3603279 7.63360658 -2 9 C-1.67 7.35 -1.34 5.7 -1 4 C-0.34 4 0.32 4 1 4 C0.67 2.68 0.34 1.36 0 0 Z " fill="#FBEDD8" transform="translate(506,330)"/>
<path d="M0 0 C4.35167754 1.0673926 6.9065891 1.84345826 10 5 C12.03232242 6.19599068 12.03232242 6.19599068 14.1875 7.1875 C14.90292969 7.53167969 15.61835937 7.87585938 16.35546875 8.23046875 C17.16951172 8.61138672 17.16951172 8.61138672 18 9 C15 10 15 10 12.6953125 9.1796875 C7.66121138 6.62438389 3.68718826 4.30171964 0 0 Z " fill="#431210" transform="translate(605,608)"/>
<path d="M0 0 C3.69976083 1.26333297 5.82286365 3.39572729 7.5625 6.875 C7.69665472 9.5473621 7.60568541 12.19750488 7.5625 14.875 C7.2325 14.875 6.9025 14.875 6.5625 14.875 C6.46453125 14.26011719 6.3665625 13.64523437 6.265625 13.01171875 C5.42410783 8.04410209 5.42410783 8.04410209 2.8125 3.875 C0.07964677 2.66039856 -2.47486091 2.21166353 -5.4375 1.875 C-2.4375 -0.125 -2.4375 -0.125 0 0 Z " fill="#2A0C09" transform="translate(680.4375,541.125)"/>
<path d="M0 0 C0.33 1.32 0.66 2.64 1 4 C0.34 4 -0.32 4 -1 4 C-1.2475 4.721875 -1.495 5.44375 -1.75 6.1875 C-3.13855708 9.31175343 -4.65354583 11.51551912 -7 14 C-9.1328125 14.640625 -9.1328125 14.640625 -11 15 C-10.62488281 14.5875 -10.24976563 14.175 -9.86328125 13.75 C-6.04203965 9.43786842 -2.91486912 4.96559562 0 0 Z " fill="#DA8B34" transform="translate(572,244)"/>
<path d="M0 0 C-2.28560647 1.5306999 -4.57762667 3.04965044 -6.875 4.5625 C-7.52597656 5.00013672 -8.17695313 5.43777344 -8.84765625 5.88867188 C-10.52625497 6.98754836 -12.26023387 8.0007818 -14 9 C-14.66 8.67 -15.32 8.34 -16 8 C-15 6 -15 6 -12 5 C-11.67 4.34 -11.34 3.68 -11 3 C-9.00390625 1.89453125 -9.00390625 1.89453125 -6.5625 0.8125 C-5.75941406 0.44769531 -4.95632813 0.08289063 -4.12890625 -0.29296875 C-2 -1 -2 -1 0 0 Z " fill="#591612" transform="translate(481,688)"/>
<path d="M0 0 C0.66 0.33 1.32 0.66 2 1 C-0.06625391 3.79551999 -1.06882192 4.01067926 -4.625 4.5625 C-6.295625 4.7790625 -6.295625 4.7790625 -8 5 C-8.33 5.66 -8.66 6.32 -9 7 C-9.66 6.67 -10.32 6.34 -11 6 C-11 6.66 -11 7.32 -11 8 C-12.32 7.34 -13.64 6.68 -15 6 C-12.54524486 4.96971956 -10.08685649 3.95054496 -7.625 2.9375 C-6.57699219 2.49567383 -6.57699219 2.49567383 -5.5078125 2.04492188 C-3.69495092 1.30408902 -1.84876857 0.64603036 0 0 Z " fill="#F4E3DA" transform="translate(734,616)"/>
<path d="M0 0 C1.32 0.33 2.64 0.66 4 1 C4 1.99 4 2.98 4 4 C5.32 4.33 6.64 4.66 8 5 C8 6.98 8 8.96 8 11 C5.33333333 8.33333333 2.66666667 5.66666667 0 3 C0 2.01 0 1.02 0 0 Z " fill="#77231E" transform="translate(208,540)"/>
<path d="M0 0 C0.33 0 0.66 0 1 0 C2.55271035 7.13909214 1.50444331 11.63785614 -2 18 C-3.51553092 14.02549507 -2.49888623 10.79518851 -1.5625 6.75 C-1.27503906 5.48671875 -0.98757813 4.2234375 -0.69140625 2.921875 C-0.46324219 1.95765625 -0.23507812 0.9934375 0 0 Z " fill="#FDE9C5" transform="translate(454,190)"/>
<path d="M0 0 C0 0.66 0 1.32 0 2 C-2.97 1.505 -2.97 1.505 -6 1 C-6 1.66 -6 2.32 -6 3 C-6.66 2.67 -7.32 2.34 -8 2 C-10.0374763 1.77141886 -12.08040303 1.58975722 -14.125 1.4375 C-15.76855469 1.31181641 -15.76855469 1.31181641 -17.4453125 1.18359375 C-18.28835938 1.12300781 -19.13140625 1.06242188 -20 1 C-20 0.67 -20 0.34 -20 0 C-17.41703983 -0.19522373 -14.83395921 -0.38144403 -12.25 -0.5625 C-11.52039063 -0.61857422 -10.79078125 -0.67464844 -10.0390625 -0.73242188 C-6.45046349 -0.97709908 -3.44972775 -0.99666259 0 0 Z " fill="#712A25" transform="translate(528,836)"/>
<path d="M0 0 C0.66 0 1.32 0 2 0 C2 0.99 2 1.98 2 3 C4.97 3 7.94 3 11 3 C11 3.99 11 4.98 11 6 C7.44706507 7.14947895 6.20023331 7.0868937 2.6875 5.5625 C1.800625 5.046875 0.91375 4.53125 0 4 C0 2.68 0 1.36 0 0 Z " fill="#672421" transform="translate(281,609)"/>
<path d="M0 0 C0.66 0.33 1.32 0.66 2 1 C2 5.29 2 9.58 2 14 C0.35 13.67 -1.3 13.34 -3 13 C-2.01 12.67 -1.02 12.34 0 12 C0 8.04 0 4.08 0 0 Z " fill="#573431" transform="translate(453,587)"/>
<path d="M0 0 C2.51699845 2.51699845 3.10964078 4.57554146 4 8 C3.625 10.375 3.625 10.375 3 12 C2.34 10.02 1.68 8.04 1 6 C0.01 6.33 -0.98 6.66 -2 7 C-2 5.02 -2 3.04 -2 1 C-1.34 0.67 -0.68 0.34 0 0 Z " fill="#E08D2D" transform="translate(451,146)"/>
<path d="M0 0 C0.66 0 1.32 0 2 0 C1.67 1.98 1.34 3.96 1 6 C0.01 6 -0.98 6 -2 6 C-2.33 7.32 -2.66 8.64 -3 10 C-3.66 9.67 -4.32 9.34 -5 9 C-4.67 6.36 -4.34 3.72 -4 1 C-3.34 1.99 -2.68 2.98 -2 4 C-1.34 2.68 -0.68 1.36 0 0 Z " fill="#F39834" transform="translate(514,94)"/>
<path d="M0 0 C0.99 0.33 1.98 0.66 3 1 C2.67 5.95 2.34 10.9 2 16 C1.34 16 0.68 16 0 16 C0 16.66 0 17.32 0 18 C-0.66 17.67 -1.32 17.34 -2 17 C-1.67 16.236875 -1.34 15.47375 -1 14.6875 C0.33945668 9.74825349 0.16287658 5.08536891 0 0 Z " fill="#F7E6E0" transform="translate(665,896)"/>
<path d="M0 0 C4.95 0 9.9 0 15 0 C15 0.33 15 0.66 15 1 C14.39671875 1.02578125 13.7934375 1.0515625 13.171875 1.078125 C7.89464661 1.40331983 7.89464661 1.40331983 3.4375 4.0625 C2.963125 4.701875 2.48875 5.34125 2 6 C1.34 5.34 0.68 4.68 0 4 C0 2.68 0 1.36 0 0 Z " fill="#5F2E27" transform="translate(701,514)"/>
<path d="M0 0 C3.79979982 3.25697128 6.48005185 7.22568435 8 12 C7.60546875 14.25 7.60546875 14.25 7 16 C5.82845707 13.71070947 4.66261926 11.41881638 3.5 9.125 C3.16613281 8.47402344 2.83226562 7.82304687 2.48828125 7.15234375 C0 2.2265625 0 2.2265625 0 0 Z " fill="#F4913B" transform="translate(524,384)"/>
<path d="M0 0 C1.21236328 0.04060547 1.21236328 0.04060547 2.44921875 0.08203125 C3.06410156 0.11683594 3.67898438 0.15164063 4.3125 0.1875 C4.3125 0.5175 4.3125 0.8475 4.3125 1.1875 C3.03375 1.27 1.755 1.3525 0.4375 1.4375 C-1.75882258 1.65309926 -1.75882258 1.65309926 -3.6875 2.1875 C-4.77916275 4.12080603 -4.77916275 4.12080603 -5.6875 6.1875 C-9.3125 7.4375 -9.3125 7.4375 -12.6875 8.1875 C-11.02083333 6.52083333 -9.35416667 4.85416667 -7.6875 3.1875 C-7.23375 2.6409375 -6.78 2.094375 -6.3125 1.53125 C-4.13032399 -0.2732417 -2.7894757 -0.12128155 0 0 Z " fill="#FCEFCE" transform="translate(530.6875,287.8125)"/>
<path d="M0 0 C1.94268841 2.91403262 3.46395304 5.85808576 5 9 C1.25 12 1.25 12 -1 12 C-1 10.68 -1 9.36 -1 8 C-0.34 8 0.32 8 1 8 C0.67 5.36 0.34 2.72 0 0 Z " fill="#E68F32" transform="translate(451,242)"/>
<path d="M0 0 C2.97069541 2.54631035 4.4775751 5.42230149 6 9 C5.67 9.66 5.34 10.32 5 11 C3.0625 10.375 3.0625 10.375 1 9 C0.20851401 5.9000132 0 3.19474755 0 0 Z " fill="#5E1B16" transform="translate(441,791)"/>
<path d="M0 0 C2.31 0.33 4.62 0.66 7 1 C7 1.99 7 2.98 7 4 C5.39504433 3.88557539 3.79101881 3.75805306 2.1875 3.625 C1.29417969 3.55539062 0.40085937 3.48578125 -0.51953125 3.4140625 C-3 3 -3 3 -6 1 C-4.02 1 -2.04 1 0 1 C0 0.67 0 0.34 0 0 Z " fill="#F2DED8" transform="translate(329,604)"/>
<path d="M0 0 C0.66 0 1.32 0 2 0 C2.28875 0.598125 2.5775 1.19625 2.875 1.8125 C4.04742026 4.19327792 4.04742026 4.19327792 6 7 C6.125 9.6875 6.125 9.6875 6 12 C3.32098068 9.68118495 2.33795597 7.68185532 1.3125 4.3125 C1.06113281 3.50425781 0.80976563 2.69601562 0.55078125 1.86328125 C0.36902344 1.24839844 0.18726563 0.63351562 0 0 Z " fill="#551511" transform="translate(177,484)"/>
<path d="M0 0 C1.83836919 3.67673838 2.93651813 7.04992447 4 11 C1.525 10.01 1.525 10.01 -1 9 C-0.67 6.03 -0.34 3.06 0 0 Z " fill="#E6973C" transform="translate(585,173)"/>
<path d="M0 0 C0 0.99 0 1.98 0 3 C-3.2690159 6.1782099 -4.32165993 7 -9 7 C-9 6.34 -9 5.68 -9 5 C-6.03 3.35 -3.06 1.7 0 0 Z " fill="#F9EAE1" transform="translate(748,609)"/>
<path d="M0 0 C2 3.75 2 3.75 2 6 C1.01 6.33 0.02 6.66 -1 7 C-1.33 7.66 -1.66 8.32 -2 9 C-2.99 8.67 -3.98 8.34 -5 8 C-5 7.01 -5 6.02 -5 5 C-3.68 4.67 -2.36 4.34 -1 4 C-0.67 2.68 -0.34 1.36 0 0 Z " fill="#3E1E1B" transform="translate(686,554)"/>
<path d="M0 0 C3.28465896 2.79196011 5.01321958 6.23196817 7 10 C7 10.66 7 11.32 7 12 C6.01 12 5.02 12 4 12 C3.67 12.66 3.34 13.32 3 14 C3.061875 13.13375 3.12375 12.2675 3.1875 11.375 C2.97480022 7.54640401 1.81764424 5.33234777 0 2 C0 1.34 0 0.68 0 0 Z " fill="#41140F" transform="translate(461,513)"/>
<path d="M0 0 C-4.75 4.875 -4.75 4.875 -7 6 C-7 5.34 -7 4.68 -7 4 C-7.99 3.34 -8.98 2.68 -10 2 C-6.5980513 -0.09350689 -3.94727588 -0.17942163 0 0 Z " fill="#FBF0E7" transform="translate(319,517)"/>
<path d="M0 0 C0.33 0 0.66 0 1 0 C1.33292585 4.24480464 1.43885872 6.35542625 -1 9.9375 C-1.66 10.618125 -2.32 11.29875 -3 12 C-3.33 9.69 -3.66 7.38 -4 5 C-3.34 5 -2.68 5 -2 5 C-1.34 3.35 -0.68 1.7 0 0 Z " fill="#A53B21" transform="translate(479,377)"/>
<path d="M0 0 C0.33 0.99 0.66 1.98 1 3 C3.97 3.495 3.97 3.495 7 4 C6.67 5.32 6.34 6.64 6 8 C6.66 8.33 7.32 8.66 8 9 C5 9 5 9 3.39453125 7.46875 C2.87246094 6.8190625 2.35039063 6.169375 1.8125 5.5 C1.28269531 4.8503125 0.75289062 4.200625 0.20703125 3.53125 C-0.19128906 3.0259375 -0.58960938 2.520625 -1 2 C-0.67 1.34 -0.34 0.68 0 0 Z " fill="#FEECE9" transform="translate(633,860)"/>
<path d="M0 0 C4.29 0 8.58 0 13 0 C12.01 0.495 12.01 0.495 11 1 C11 1.66 11 2.32 11 3 C6.70700357 4.26264601 4.12168689 3.62950412 0 2 C0 1.34 0 0.68 0 0 Z " fill="#6D2520" transform="translate(217,492)"/>
<path d="M0 0 C1.23809524 4.95238095 1.23809524 4.95238095 0 8 C-2.0625 10.25 -2.0625 10.25 -4 12 C-4.66 11.67 -5.32 11.34 -6 11 C-4.02 7.37 -2.04 3.74 0 0 Z " fill="#F8E3CF" transform="translate(551,444)"/>
<path d="M0 0 C1.125 1.6875 1.125 1.6875 2 4 C1.125 6.75 1.125 6.75 0 9 C-0.66 9 -1.32 9 -2 9 C-2.33 9.99 -2.66 10.98 -3 12 C-2.14285714 3.42857143 -2.14285714 3.42857143 0 0 Z " fill="#88230C" transform="translate(474,387)"/>
<path d="M0 0 C0.66 0.33 1.32 0.66 2 1 C1.86722656 1.65226563 1.73445313 2.30453125 1.59765625 2.9765625 C0.65517178 7.6408287 -0.25768703 12.29868454 -1 17 C-1.33 17 -1.66 17 -2 17 C-2 14.03 -2 11.06 -2 8 C-1.34 8 -0.68 8 0 8 C-0.2784375 6.2984375 -0.2784375 6.2984375 -0.5625 4.5625 C-0.7790625 2.7990625 -0.7790625 2.7990625 -1 1 C-0.67 0.67 -0.34 0.34 0 0 Z " fill="#FCEECC" transform="translate(425,203)"/>
<path d="M0 0 C2 3 2 3 3 6 C3.66 6 4.32 6 5 6 C4.34 9.3 3.68 12.6 3 16 C2.67 16 2.34 16 2 16 C1.34 10.72 0.68 5.44 0 0 Z " fill="#FFECCB" transform="translate(515,90)"/>
<path d="M0 0 C0.66 0.33 1.32 0.66 2 1 C0.68 3.97 -0.64 6.94 -2 10 C-2.99 9.34 -3.98 8.68 -5 8 C-3.35 5.36 -1.7 2.72 0 0 Z " fill="#F6E5DD" transform="translate(448,715)"/>
<path d="M0 0 C1.15518918 0.90484792 2.29885406 1.8244206 3.4375 2.75 C4.07558594 3.26046875 4.71367188 3.7709375 5.37109375 4.296875 C7.18810554 6.19667629 7.60423197 7.43586908 8 10 C6.02 9.34 4.04 8.68 2 8 C1.855625 7.236875 1.71125 6.47375 1.5625 5.6875 C1.0367406 2.91827092 1.0367406 2.91827092 0 0 Z " fill="#5B120E" transform="translate(591,687)"/>
<path d="M0 0 C-0.66 1.32 -1.32 2.64 -2 4 C-3.65 4 -5.3 4 -7 4 C-7 4.66 -7 5.32 -7 6 C-7.99 5.67 -8.98 5.34 -10 5 C-3.87096774 0 -3.87096774 0 0 0 Z " fill="#F6E2DC" transform="translate(483,688)"/>
<path d="M0 0 C-0.33 0.99 -0.66 1.98 -1 3 C-5.95 2.67 -10.9 2.34 -16 2 C-16 1.67 -16 1.34 -16 1 C-10.62915894 0.31798844 -5.41499441 -0.11521265 0 0 Z " fill="#6B2926" transform="translate(700,625)"/>
<path d="M0 0 C1.32 0.33 2.64 0.66 4 1 C3.67 3.31 3.34 5.62 3 8 C2.01 8 1.02 8 0 8 C0 5.36 0 2.72 0 0 Z " fill="#6E2421" transform="translate(816,532)"/>
<path d="M0 0 C3.96 0.33 7.92 0.66 12 1 C12 1.33 12 1.66 12 2 C4.08 2.495 4.08 2.495 -4 3 C-2.68 2.67 -1.36 2.34 0 2 C0 1.34 0 0.68 0 0 Z " fill="#7C332A" transform="translate(258,452)"/>
<path d="M0 0 C1.22329074 3.66987221 0.88021006 6.33967822 0.5625 10.1875 C0.46066406 11.45980469 0.35882812 12.73210938 0.25390625 14.04296875 C0.12822266 15.50669922 0.12822266 15.50669922 0 17 C-0.33 17 -0.66 17 -1 17 C-1.06058594 16.16855469 -1.12117187 15.33710937 -1.18359375 14.48046875 C-1.26738281 13.39378906 -1.35117187 12.30710937 -1.4375 11.1875 C-1.51871094 10.10855469 -1.59992187 9.02960937 -1.68359375 7.91796875 C-1.90212461 4.94010095 -1.90212461 4.94010095 -3 2 C-2.01 1.34 -1.02 0.68 0 0 Z " fill="#C2ADA7" transform="translate(636,539)"/>
<path d="M0 0 C0.66 0.33 1.32 0.66 2 1 C1.57742724 2.4835001 1.13643678 3.96176424 0.6875 5.4375 C0.44386719 6.26121094 0.20023438 7.08492187 -0.05078125 7.93359375 C-0.36402344 8.61550781 -0.67726563 9.29742188 -1 10 C-1.99 10.33 -2.98 10.66 -4 11 C-3.48964169 6.6109185 -2.47785723 3.66291938 0 0 Z " fill="#461714" transform="translate(559,517)"/>
<path d="M0 0 C2.53524446 1.01409778 3.77139002 1.61497266 5.1875 4 C5.455625 4.66 5.72375 5.32 6 6 C6.33 6.66 6.66 7.32 7 8 C6.401875 7.690625 5.80375 7.38125 5.1875 7.0625 C2.91043228 5.89790296 2.91043228 5.89790296 0 5 C-0.75 3 -0.75 3 -1 1 C-0.67 0.67 -0.34 0.34 0 0 Z " fill="#672823" transform="translate(425,470)"/>
<path d="M0 0 C0.99 0.495 0.99 0.495 2 1 C2.33333333 3 2.66666667 5 3 7 C3.66 7.33 4.32 7.66 5 8 C4.34 9.98 3.68 11.96 3 14 C2.67 14 2.34 14 2 14 C1.34 9.38 0.68 4.76 0 0 Z " fill="#FBEAE0" transform="translate(615,728)"/>
<path d="M0 0 C2.31 1.98 4.62 3.96 7 6 C6.01 6.99 5.02 7.98 4 9 C3.731875 8.38125 3.46375 7.7625 3.1875 7.125 C2.04443152 4.7004767 2.04443152 4.7004767 -1 3 C-0.67 2.01 -0.34 1.02 0 0 Z " fill="#702C2E" transform="translate(585,680)"/>
<path d="M0 0 C0.33 0 0.66 0 1 0 C1 2.31 1 4.62 1 7 C0.34 7 -0.32 7 -1 7 C-1.33 8.32 -1.66 9.64 -2 11 C-2.95465783 8.83032311 -3.14401212 7.43671207 -2.3984375 5.17578125 C-1.64129615 3.4315257 -0.82390802 1.71372869 0 0 Z " fill="#491816" transform="translate(550,536)"/>
<path d="M0 0 C1.98 0.99 1.98 0.99 4 2 C4 2.66 4 3.32 4 4 C3.34 4 2.68 4 2 4 C2 7.3 2 10.6 2 14 C1.67 14 1.34 14 1 14 C0.67 9.38 0.34 4.76 0 0 Z " fill="#F7E2DE" transform="translate(388,540)"/>
<path d="M0 0 C4.95 0.33 9.9 0.66 15 1 C15 1.33 15 1.66 15 2 C11.04 2.66 7.08 3.32 3 4 C3 3.01 3 2.02 3 1 C2.01 0.67 1.02 0.34 0 0 Z " fill="#602927" transform="translate(681,496)"/>
<path d="M0 0 C-4.455 2.97 -4.455 2.97 -9 6 C-9.33 5.34 -9.66 4.68 -10 4 C-9.34 4 -8.68 4 -8 4 C-8 3.34 -8 2.68 -8 2 C-7.34 2 -6.68 2 -6 2 C-6 1.34 -6 0.68 -6 0 C-2.25 -1.125 -2.25 -1.125 0 0 Z " fill="#DC8628" transform="translate(520,294)"/>
<path d="M0 0 C2 1 2 1 2.625 2.625 C3.12095645 5.7660575 3.06103811 8.82601831 3 12 C0.97649676 8.96474514 0.67875982 7.80573798 0.375 4.3125 C0.30023437 3.50425781 0.22546875 2.69601562 0.1484375 1.86328125 C0.09945312 1.24839844 0.05046875 0.63351562 0 0 Z " fill="#5E160F" transform="translate(613,726)"/>
<path d="M0 0 C1.37432457 3.81756824 0.67975039 7.07255329 0 11 C-0.66 11 -1.32 11 -2 11 C-1.85957123 9.35369672 -1.71250671 7.70795821 -1.5625 6.0625 C-1.48128906 5.14597656 -1.40007813 4.22945312 -1.31640625 3.28515625 C-1 1 -1 1 0 0 Z " fill="#4A100F" transform="translate(545,552)"/>
<path d="M0 0 C0.66 0.33 1.32 0.66 2 1 C1.25 3.4375 1.25 3.4375 0 6 C-2.125 6.8125 -2.125 6.8125 -4 7 C-4 5.35 -4 3.7 -4 2 C-2.125 0.9375 -2.125 0.9375 0 0 Z " fill="#6E2A28" transform="translate(804,555)"/>
<path d="M0 0 C0.33 0.66 0.66 1.32 1 2 C0.00390625 3.9453125 0.00390625 3.9453125 -1.4375 6.125 C-1.91058594 6.84945312 -2.38367188 7.57390625 -2.87109375 8.3203125 C-3.24363281 8.87460937 -3.61617187 9.42890625 -4 10 C-4.93423645 6.98968256 -5.04449911 6.13349732 -4 3 C-3.01 3 -2.02 3 -1 3 C-0.67 2.01 -0.34 1.02 0 0 Z " fill="#461211" transform="translate(565,543)"/>
<path d="M0 0 C2.64 0 5.28 0 8 0 C8 0.33 8 0.66 8 1 C6.35 1.33 4.7 1.66 3 2 C3 2.66 3 3.32 3 4 C1.02 4 -0.96 4 -3 4 C-2.67 3.34 -2.34 2.68 -2 2 C-1.34 2 -0.68 2 0 2 C0 1.34 0 0.68 0 0 Z " fill="#E7D4CD" transform="translate(774,516)"/>
<path d="M0 0 C0.99 0 1.98 0 3 0 C3 0.66 3 1.32 3 2 C3.66 2.33 4.32 2.66 5 3 C-0.94 3.495 -0.94 3.495 -7 4 C-6.67 3.34 -6.34 2.68 -6 2 C-4.02 2 -2.04 2 0 2 C0 1.34 0 0.68 0 0 Z " fill="#6E221B" transform="translate(275,512)"/>
<path d="M0 0 C0.99 0.33 1.98 0.66 3 1 C-1.51350747 4.52273754 -4.28341664 5.45732667 -10 5 C-10 4.67 -10 4.34 -10 4 C-9.36191406 3.79503906 -8.72382813 3.59007812 -8.06640625 3.37890625 C-7.24011719 3.10949219 -6.41382813 2.84007812 -5.5625 2.5625 C-4.73878906 2.29566406 -3.91507813 2.02882813 -3.06640625 1.75390625 C-1.03780412 1.17844506 -1.03780412 1.17844506 0 0 Z " fill="#EB8834" transform="translate(519,446)"/>
<path d="M0 0 C0 3 0 3 -1 6 C-2.65 6.33 -4.3 6.66 -6 7 C-4.02 4.69 -2.04 2.38 0 0 Z M-8 7 C-7.34 7.33 -6.68 7.66 -6 8 C-6.99 8 -7.98 8 -9 8 C-8.67 7.67 -8.34 7.34 -8 7 Z " fill="#F3DED1" transform="translate(859,418)"/>
<path d="M0 0 C0.66 0.33 1.32 0.66 2 1 C1.34 2.98 0.68 4.96 0 7 C-0.433125 6.505 -0.86625 6.01 -1.3125 5.5 C-2.99740483 3.66781808 -2.99740483 3.66781808 -6 4 C-5.67 3.01 -5.34 2.02 -5 1 C-3.68 1 -2.36 1 -1 1 C-0.67 0.67 -0.34 0.34 0 0 Z " fill="#742627" transform="translate(863,408)"/>
<path d="M0 0 C0.66 0 1.32 0 2 0 C0.515 5.445 0.515 5.445 -1 11 C-3 8 -3 8 -3 6 C-2.34 6 -1.68 6 -1 6 C-1.0309375 4.7934375 -1.0309375 4.7934375 -1.0625 3.5625 C-1 1 -1 1 0 0 Z " fill="#FAE0CC" transform="translate(472,386)"/>
<path d="M0 0 C2.475 0.495 2.475 0.495 5 1 C5.33 1.99 5.66 2.98 6 4 C6.66 4 7.32 4 8 4 C8 4.66 8 5.32 8 6 C7.01 6.33 6.02 6.66 5 7 C3.35 4.69 1.7 2.38 0 0 Z " fill="#FCEAD7" transform="translate(528,348)"/>
<path d="M0 0 C0.66 0.33 1.32 0.66 2 1 C0.02 3.97 0.02 3.97 -2 7 C-2.66 6.67 -3.32 6.34 -4 6 C-3.67 4.35 -3.34 2.7 -3 1 C-2.01 0.67 -1.02 0.34 0 0 Z " fill="#FAE7D6" transform="translate(495,346)"/>
<path d="M0 0 C2.5 1.1875 2.5 1.1875 5 3 C5.3125 5.6875 5.3125 5.6875 5 8 C3.02 6.35 1.04 4.7 -1 3 C-0.67 2.01 -0.34 1.02 0 0 Z " fill="#FCF3EB" transform="translate(615,842)"/>
<path d="M0 0 C0.66 0.33 1.32 0.66 2 1 C0.35 3.64 -1.3 6.28 -3 9 C-3.66 8.67 -4.32 8.34 -5 8 C-3.8141763 4.62496331 -2.72426311 2.35277269 0 0 Z " fill="#F6E6DC" transform="translate(421,699)"/>
<path d="M0 0 C0.66 0.33 1.32 0.66 2 1 C0.32482761 4.53647504 -0.49280817 5.7911563 -4.1875 7.3125 C-5.5796875 7.6528125 -5.5796875 7.6528125 -7 8 C-5.50902342 4.2047869 -3.24299151 2.38957269 0 0 Z " fill="#4C1010" transform="translate(756,576)"/>
<path d="M0 0 C0.66 1.32 1.32 2.64 2 4 C1.34 4 0.68 4 0 4 C0 4.66 0 5.32 0 6 C-1.65 6 -3.3 6 -5 6 C-3.35 4.02 -1.7 2.04 0 0 Z " fill="#632E2D" transform="translate(600,539)"/>
<path d="M0 0 C0 3 0 3 -2.5 5.6875 C-3.325 6.450625 -4.15 7.21375 -5 8 C-5.66 6.68 -6.32 5.36 -7 4 C-6.401875 3.896875 -5.80375 3.79375 -5.1875 3.6875 C-2.71756736 2.91123545 -1.67748765 1.92911079 0 0 Z " fill="#672626" transform="translate(608,534)"/>
<path d="M0 0 C0.66 0.33 1.32 0.66 2 1 C2.40729228 3.32156597 2.74438677 5.6568787 3 8 C2.01 8 1.02 8 0 8 C-0.98120464 4.94736336 -0.98120464 3.05263664 0 0 Z " fill="#A03409" transform="translate(489,428)"/>
<path d="M0 0 C0.33 1.32 0.66 2.64 1 4 C-0.21484375 5.703125 -0.21484375 5.703125 -1.9375 7.25 C-2.50339844 7.77078125 -3.06929687 8.2915625 -3.65234375 8.828125 C-4.09707031 9.21484375 -4.54179688 9.6015625 -5 10 C-5.66 9.67 -6.32 9.34 -7 9 C-4.69 6.03 -2.38 3.06 0 0 Z " fill="#F7E4DA" transform="translate(867,408)"/>
<path d="M0 0 C1.32 0.66 2.64 1.32 4 2 C3.67 2.66 3.34 3.32 3 4 C0.67843403 4.40729228 -1.6568787 4.74438677 -4 5 C-2.68 3.35 -1.36 1.7 0 0 Z " fill="#922A15" transform="translate(511,332)"/>
<path d="M0 0 C2.39073445 3.82517513 2.55966552 7.59665524 3 12 C0.7448078 9.7448078 0.02276532 7.9952413 -1 5 C-1 2 -1 2 0 0 Z " fill="#E1903D" transform="translate(598,210)"/>
<path d="M0 0 C0.33 0.66 0.66 1.32 1 2 C0.34 2 -0.32 2 -1 2 C-1.33 2.99 -1.66 3.98 -2 5 C-5.0625 6.1875 -5.0625 6.1875 -8 7 C-3.375 1.125 -3.375 1.125 0 0 Z " fill="#561713" transform="translate(566,815)"/>
<path d="M0 0 C1.32 0 2.64 0 4 0 C3.34 3.3 2.68 6.6 2 10 C1.67 10 1.34 10 1 10 C1.020625 8.906875 1.04125 7.81375 1.0625 6.6875 C1.18544452 3.05615809 1.18544452 3.05615809 0 0 Z " fill="#EED9D6" transform="translate(584,772)"/>
<path d="M0 0 C0.66 0.33 1.32 0.66 2 1 C1.60196439 3.88575819 1.20990931 4.82189513 -1.0625 6.75 C-1.701875 7.1625 -2.34125 7.575 -3 8 C-3.33 6.68 -3.66 5.36 -4 4 C-3.01 4 -2.02 4 -1 4 C-0.67 2.68 -0.34 1.36 0 0 Z " fill="#792522" transform="translate(418,709)"/>
<path d="M0 0 C0 2.66666667 0 5.33333333 0 8 C-1.65 8.33 -3.3 8.66 -5 9 C-3.7508258 5.54074837 -2.32472205 2.85306797 0 0 Z " fill="#5B1812" transform="translate(423,699)"/>
<path d="M0 0 C0.33 0.66 0.66 1.32 1 2 C1.66 2.33 2.32 2.66 3 3 C2.34 3 1.68 3 1 3 C0.67 4.65 0.34 6.3 0 8 C-0.99 7.67 -1.98 7.34 -3 7 C-2.01 4.69 -1.02 2.38 0 0 Z " fill="#F6EAE2" transform="translate(553,568)"/>
<path d="M0 0 C0.99 0.33 1.98 0.66 3 1 C1.515 3.475 1.515 3.475 0 6 C-1.32 5.67 -2.64 5.34 -4 5 C-2.68 3.35 -1.36 1.7 0 0 Z " fill="#5A1614" transform="translate(784,545)"/>
<path d="M0 0 C3.94139078 1.66751148 6.7892812 4.22710649 10 7 C6.433255 7 5.89456323 6.36308045 3.3125 4.0625 C2.68988281 3.51722656 2.06726563 2.97195313 1.42578125 2.41015625 C0.95527344 1.94480469 0.48476563 1.47945312 0 1 C0 0.67 0 0.34 0 0 Z " fill="#491616" transform="translate(413,531)"/>
<path d="M0 0 C2.31 0 4.62 0 7 0 C5.68 1.32 4.36 2.64 3 4 C1.68 3.34 0.36 2.68 -1 2 C-0.67 1.34 -0.34 0.68 0 0 Z " fill="#4D1615" transform="translate(672,498)"/>
<path d="M0 0 C0 0.99 0 1.98 0 3 C-3.93670488 4.31223496 -6.12488144 3.24296256 -10 2 C-10 1.67 -10 1.34 -10 1 C-6.56484998 0.37542727 -3.50935186 0 0 0 Z " fill="#752D2E" transform="translate(823,420)"/>
<path d="M0 0 C2.31 0.33 4.62 0.66 7 1 C7 1.99 7 2.98 7 4 C5.35 4 3.7 4 2 4 C1.67 4.66 1.34 5.32 1 6 C0.67 4.02 0.34 2.04 0 0 Z " fill="#722522" transform="translate(158,407)"/>
<path d="M0 0 C2.74277578 3.19990508 4.6302836 6.00499382 6 10 C1.125 5.375 1.125 5.375 0 2 C-0.66 1.67 -1.32 1.34 -2 1 C-1.34 0.67 -0.68 0.34 0 0 Z " fill="#9D2F08" transform="translate(513,364)"/>
<path d="M0 0 C-0.33 0.66 -0.66 1.32 -1 2 C-4.63 1.67 -8.26 1.34 -12 1 C-12 0.67 -12 0.34 -12 0 C-3.42857143 -1.28571429 -3.42857143 -1.28571429 0 0 Z " fill="#ECD0C5" transform="translate(536,865)"/>
<path d="M0 0 C0.66 0 1.32 0 2 0 C2 0.66 2 1.32 2 2 C2.66 2 3.32 2 4 2 C4.33 3.98 4.66 5.96 5 8 C2.5 5.6875 2.5 5.6875 0 3 C0 2.01 0 1.02 0 0 Z " fill="#5B1612" transform="translate(423,816)"/>
<path d="M0 0 C0.66 0.33 1.32 0.66 2 1 C1.43628586 4.26954202 0.50037734 5.82575883 -2 8 C-2 2 -2 2 0 0 Z " fill="#732B29" transform="translate(768,564)"/>
<path d="M0 0 C0.33 1.32 0.66 2.64 1 4 C1.99 4 2.98 4 4 4 C3.67 5.65 3.34 7.3 3 9 C0.11749016 6.61879622 -0.61038985 4.70129644 -1 1 C-0.67 0.67 -0.34 0.34 0 0 Z " fill="#341613" transform="translate(304,562)"/>
<path d="M0 0 C1.65 1.32 3.3 2.64 5 4 C4.67 4.99 4.34 5.98 4 7 C3.34 6.34 2.68 5.68 2 5 C1.01 4.67 0.02 4.34 -1 4 C-0.67 2.68 -0.34 1.36 0 0 Z " fill="#662224" transform="translate(425,543)"/>
<path d="M0 0 C0.66 0.33 1.32 0.66 2 1 C1.3125 2.9375 1.3125 2.9375 0 5 C-2.625 5.75 -2.625 5.75 -5 6 C-3.63016497 2.83884224 -3.0109362 2.0072908 0 0 Z " fill="#3B1613" transform="translate(318,518)"/>
<path d="M0 0 C4 4.5 4 4.5 4 9 C3.67 8.34 3.34 7.68 3 7 C2.01 6.67 1.02 6.34 0 6 C0 4.02 0 2.04 0 0 Z " fill="#702424" transform="translate(195,516)"/>
<path d="M0 0 C3.96 0.33 7.92 0.66 12 1 C12 1.33 12 1.66 12 2 C8.7 2.33 5.4 2.66 2 3 C1.34 2.01 0.68 1.02 0 0 Z " fill="#FBEBE6" transform="translate(704,517)"/>
<path d="M0 0 C2.64 0.99 5.28 1.98 8 3 C8 3.66 8 4.32 8 5 C3.48279689 5.36625971 3.48279689 5.36625971 1.1875 3.625 C0 2 0 2 0 0 Z " fill="#5A1114" transform="translate(185,479)"/>
<path d="M0 0 C0.99 0.66 1.98 1.32 3 2 C3 2.66 3 3.32 3 4 C3.99 4.33 4.98 4.66 6 5 C4.68 5.33 3.36 5.66 2 6 C2 5.34 2 4.68 2 4 C0.68 3.67 -0.64 3.34 -2 3 C-1 1 -1 1 0 0 Z " fill="#ECD8CC" transform="translate(162,416)"/>
<path d="M0 0 C0.66 0 1.32 0 2 0 C2 0.99 2 1.98 2 3 C-0.64 3.99 -3.28 4.98 -6 6 C-6 5.34 -6 4.68 -6 4 C-5.01 3.67 -4.02 3.34 -3 3 C-2.484375 2.484375 -1.96875 1.96875 -1.4375 1.4375 C-0.963125 0.963125 -0.48875 0.48875 0 0 Z " fill="#F9E3E2" transform="translate(862,404)"/>
<path d="M0 0 C2.12508244 3.18762365 2.5020163 5.26512223 3 9 C1.5 7.625 1.5 7.625 0 6 C0 5.34 0 4.68 0 4 C-0.66 4 -1.32 4 -2 4 C-2 3.01 -2 2.02 -2 1 C-1.34 0.67 -0.68 0.34 0 0 Z " fill="#A83623" transform="translate(540,366)"/>
<path d="M0 0 C0.99 0.33 1.98 0.66 3 1 C1.35 2.98 -0.3 4.96 -2 7 C-2.6875 5.1875 -2.6875 5.1875 -3 3 C-1.5625 1.25 -1.5625 1.25 0 0 Z " fill="#FAE5D8" transform="translate(501,338)"/>
<path d="M0 0 C0 1.65 0 3.3 0 5 C-0.99 5.495 -0.99 5.495 -2 6 C-2.66 5.34 -3.32 4.68 -4 4 C-4.66 3.67 -5.32 3.34 -6 3 C-2.25 0 -2.25 0 0 0 Z " fill="#FCEBD2" transform="translate(518,296)"/>
<path d="M0 0 C1.65 0.99 3.3 1.98 5 3 C4.67 3.99 4.34 4.98 4 6 C3.34 6 2.68 6 2 6 C2 5.34 2 4.68 2 4 C1.01 3.67 0.02 3.34 -1 3 C-0.67 2.01 -0.34 1.02 0 0 Z " fill="#FAEBE1" transform="translate(632,918)"/>
<path d="M0 0 C0.66 0.66 1.32 1.32 2 2 C2.99 1.34 3.98 0.68 5 0 C4.67 1.65 4.34 3.3 4 5 C3.01 5.33 2.02 5.66 1 6 C0 5 0 5 -0.0625 2.4375 C-0.041875 1.633125 -0.02125 0.82875 0 0 Z " fill="#631310" transform="translate(436,728)"/>
<path d="M0 0 C3.465 1.98 3.465 1.98 7 4 C6.67 4.66 6.34 5.32 6 6 C4.125 5.8125 4.125 5.8125 2 5 C0.75 2.4375 0.75 2.4375 0 0 Z " fill="#FAEADC" transform="translate(550,691)"/>
<path d="M0 0 C1.32 0.66 2.64 1.32 4 2 C3.34 2 2.68 2 2 2 C2 2.66 2 3.32 2 4 C0.35 3.67 -1.3 3.34 -3 3 C-2.01 2.01 -1.02 1.02 0 0 Z " fill="#652B26" transform="translate(326,624)"/>
<path d="M0 0 C0.99 0.66 1.98 1.32 3 2 C-1.625 6 -1.625 6 -5 6 C-5 5.34 -5 4.68 -5 4 C-4.360625 3.71125 -3.72125 3.4225 -3.0625 3.125 C-0.84793921 2.17176549 -0.84793921 2.17176549 0 0 Z " fill="#F6E6E4" transform="translate(619,520)"/>
<path d="M0 0 C2.31 0 4.62 0 7 0 C7.33 0.99 7.66 1.98 8 3 C2.25 3.125 2.25 3.125 0 2 C0 1.34 0 0.68 0 0 Z " fill="#722D2B" transform="translate(782,513)"/>
<path d="M0 0 C1.65 0.33 3.3 0.66 5 1 C2.47211993 3.79872437 0.79588866 5.45773019 -3 6 C-2.505 5.38125 -2.01 4.7625 -1.5 4.125 C0.19222773 2.16119096 0.19222773 2.16119096 0 0 Z " fill="#48110F" transform="translate(616,488)"/>
<path d="M0 0 C-0.66 0 -1.32 0 -2 0 C-2 0.66 -2 1.32 -2 2 C-4.31 2.33 -6.62 2.66 -9 3 C-9 2.34 -9 1.68 -9 1 C-5.57367167 -0.61798838 -3.61944899 -1.34053666 0 0 Z " fill="#51130E" transform="translate(854,413)"/>
<path d="M0 0 C2.31 0 4.62 0 7 0 C7 1.32 7 2.64 7 4 C6.01 4 5.02 4 4 4 C4 3.34 4 2.68 4 2 C2.68 1.67 1.36 1.34 0 1 C0 0.67 0 0.34 0 0 Z " fill="#792421" transform="translate(168,412)"/>
<path d="M0 0 C0.99 0 1.98 0 3 0 C2.1875 2.9375 2.1875 2.9375 1 6 C0.01 6.33 -0.98 6.66 -2 7 C-1.67 6.401875 -1.34 5.80375 -1 5.1875 C0.20787988 2.94613529 0.20787988 2.94613529 0 0 Z " fill="#AA3C27" transform="translate(501,341)"/>
<path d="M0 0 C-0.5625 1.9375 -0.5625 1.9375 -2 4 C-5.625 4.75 -5.625 4.75 -9 5 C-2.87096774 0 -2.87096774 0 0 0 Z " fill="#E1882F" transform="translate(501,259)"/>
</svg>
